<svg width="45" height="48" viewBox="0 0 45 48" fill="none" xmlns="http://www.w3.org/2000/svg">
<path d="M16.115 0.58308C15.3325 -0.196472 14.0662 -0.194047 13.2866 0.588495L0.58307 13.3408C-0.196482 14.1233 -0.194058 15.3896 0.588485 16.1692C1.37103 16.9487 2.63736 16.9463 3.41691 16.1638L14.7089 4.82842L26.0443 16.1204C26.8268 16.9 28.0932 16.8976 28.8727 16.115C29.6523 15.3325 29.6498 14.0662 28.8673 13.2866L16.115 0.58308ZM20.327 25.0029L18.588 25.9908L20.327 25.0029ZM34.6322 42.1643L33.2269 43.5874L33.3996 43.758L33.6081 43.8823L34.6322 42.1643ZM39.7168 44.7373L38.8699 46.5492L38.8931 46.56L38.9166 46.5703L39.7168 44.7373ZM41.1572 47.6537C42.0874 48.2493 43.3243 47.9781 43.9199 47.0478C44.5156 46.1176 44.2443 44.8807 43.3141 44.2851L42.2356 45.9694L41.1572 47.6537ZM14.7035 2L12.7035 2.00383C12.7149 7.92577 12.9412 11.8201 13.821 15.316C14.7069 18.836 16.2258 21.8327 18.588 25.9908L20.327 25.0029L22.0659 24.0151C19.7263 19.8967 18.4448 17.2987 17.7001 14.3398C16.9493 11.3567 16.7148 7.88789 16.7035 1.99617L14.7035 2ZM20.327 25.0029L18.588 25.9908C22.0759 32.1307 25.2877 36.0987 27.9024 38.7862C29.2078 40.1279 30.3506 41.1363 31.2772 41.9201C32.2644 42.7551 32.8338 43.1992 33.2269 43.5874L34.6322 42.1643L36.0375 40.7412C35.4986 40.2091 34.6657 39.5472 33.8606 38.8662C32.9949 38.1339 31.9556 37.216 30.7694 35.9969C28.4011 33.5626 25.3922 29.8702 22.0659 24.0151L20.327 25.0029ZM34.6322 42.1643L33.6081 43.8823C35.0235 44.726 36.9503 45.6519 38.8699 46.5492L39.7168 44.7373L40.5636 42.9255C38.6215 42.0177 36.873 41.1717 35.6563 40.4464L34.6322 42.1643ZM39.7168 44.7373L38.9166 46.5703C39.9074 47.0028 40.3786 47.1552 41.1572 47.6537L42.2356 45.9694L43.3141 44.2851C42.1899 43.5653 41.2912 43.2424 40.517 42.9044L39.7168 44.7373Z" fill="white"/>
</svg>
