<svg width="45" height="48" viewBox="0 0 45 48" fill="none" xmlns="http://www.w3.org/2000/svg">
<path d="M28.1209 0.58308C28.9034 -0.196472 30.1697 -0.194047 30.9493 0.588495L43.6528 13.3408C44.4324 14.1233 44.43 15.3896 43.6474 16.1692C42.8649 16.9487 41.5985 16.9463 40.819 16.1638L29.527 4.82842L18.1916 16.1204C17.4091 16.9 16.1427 16.8976 15.3632 16.115C14.5836 15.3325 14.5861 14.0662 15.3686 13.2866L28.1209 0.58308ZM23.9089 25.0029L25.6479 25.9908L23.9089 25.0029ZM9.60369 42.1643L11.009 43.5874L10.8363 43.758L10.6278 43.8823L9.60369 42.1643ZM4.51913 44.7373L5.366 46.5492L5.34279 46.56L5.31932 46.5703L4.51913 44.7373ZM3.07873 47.6537C2.1485 48.2493 0.911564 47.9781 0.315953 47.0478C-0.279657 46.1176 -0.00839901 44.8807 0.921826 44.2851L2.00028 45.9694L3.07873 47.6537ZM29.5324 2L31.5324 2.00383C31.521 7.92577 31.2947 11.8201 30.4149 15.316C29.529 18.836 28.0101 21.8327 25.6479 25.9908L23.9089 25.0029L22.17 24.0151C24.5096 19.8967 25.7911 17.2987 26.5358 14.3398C27.2866 11.3567 27.5211 7.88789 27.5324 1.99617L29.5324 2ZM23.9089 25.0029L25.6479 25.9908C22.16 32.1307 18.9482 36.0987 16.3335 38.7862C15.0281 40.1279 13.8853 41.1363 12.9587 41.9201C11.9715 42.7551 11.4021 43.1992 11.009 43.5874L9.60369 42.1643L8.19842 40.7412C8.73727 40.2091 9.57023 39.5472 10.3753 38.8662C11.241 38.1339 12.2803 37.216 13.4665 35.9969C15.8348 33.5626 18.8437 29.8702 22.17 24.0151L23.9089 25.0029ZM9.60369 42.1643L10.6278 43.8823C9.21236 44.726 7.2856 45.6519 5.366 46.5492L4.51913 44.7373L3.67225 42.9255C5.61445 42.0177 7.36288 41.1717 8.57962 40.4464L9.60369 42.1643ZM4.51913 44.7373L5.31932 46.5703C4.32853 47.0028 3.85731 47.1552 3.07873 47.6537L2.00028 45.9694L0.921826 44.2851C2.04599 43.5653 2.94465 43.2424 3.71894 42.9044L4.51913 44.7373Z" fill="white"/>
</svg>
