<svg width="211" height="159" viewBox="0 0 211 159" fill="none" xmlns="http://www.w3.org/2000/svg">
<path d="M105.314 2.90168C99.3509 2.02539 89.0108 3.18209 78.3749 6.45282C67.3277 9.85003 60.0671 16.6112 55.3264 19.9651C50.184 23.6033 46.7782 26.982 41.4351 32.9648C38.1809 36.6086 36.3942 41.3005 32.9592 45.8944C30.0832 49.7407 28.7881 54.8829 28.2032 58.3135C26.7256 66.9799 28.052 82.0477 28.3456 84.7511C28.6524 87.5763 29.8046 90.9508 30.7532 93.8776C31.9732 97.6419 33.5989 100.879 35.7874 104.757C37.2998 107.436 39.8731 110.378 41.1218 112.867C42.6864 115.985 47.8824 122.611 51.0501 127.323C52.953 130.154 55.6375 133.591 59.1492 136.088C63.5626 139.227 65.7235 141.197 68.0632 142.301C70.5218 143.461 73.023 145.727 76.6749 148.065C78.1155 148.987 82.351 149.96 89.4139 152.146C93.1171 153.292 97.1997 154.043 103.623 154.635C118.683 156.022 128.238 155.524 130.198 154.869C136.541 152.75 139.621 152.457 142.837 151.8C145.631 151.229 148.383 148.961 151.308 146.402C153.605 144.393 156.27 143.405 159.703 140.927C163.57 138.136 166.207 136.106 170.871 131.369C173.612 128.586 175.408 125.45 177.962 120.707C179.86 117.183 181.98 114.786 183.735 111.791C185.162 109.356 185.783 106.172 186.66 103.539C187.684 100.459 187.974 97.1198 188.195 93.6103C188.411 90.189 189.727 86.175 190.02 82.2186C190.153 80.4223 190.752 73.0702 190.68 62.8505C190.626 55.2555 186.528 49.7917 184.988 47.5287C183.265 44.9965 181.27 41.7737 178.639 37.8194C177.08 35.4761 175.426 33.5804 172.871 31.3897C170.536 29.3873 168.126 27.7444 166.222 25.6194C164.394 23.5779 161.414 22.1887 159.14 20.2149C157.337 18.6496 154.404 17.3691 151.985 15.5421C149.121 13.3783 146.368 12.1114 144.243 10.3567C141.833 8.89108 139.209 8.59753 122.544 4.59729C118.62 3.77796 117.03 3.77796 115.391 3.77796" stroke="#FFFEFE" stroke-width="5" stroke-linecap="round"/>
<path d="M194.789 86.4296C197.565 85.9661 199.873 86.272 202.389 87.1978C205 88.159 206.751 91.82 207.88 95.1455C208.975 98.3738 207.307 100.093 206.649 102.909C205.712 106.919 203.757 108.13 202.249 109.137C200.46 110.331 197.352 111.685 195.682 112.382C194.951 112.691 194.251 112.925 193.635 113.079C193.324 113.156 193.018 113.233 192.008 113.775" stroke="#FFFEFE" stroke-width="5" stroke-linecap="round"/>
<path d="M26.1376 47.9603C23.0508 47.2651 21.665 46.9592 16.8482 46.8399C13.6313 46.7602 9.23896 49.8792 5.60176 53.163C3.86905 54.7273 3.0468 56.9844 2.65515 59.9229C2.29392 62.6332 2.57404 65.1 3.38514 67.8021C4.07966 70.1159 4.65973 71.5147 5.50906 72.5598C6.60993 73.9145 8.20539 76.1449 12.4104 78.6581C14.7753 79.3985 16.7845 79.7091 18.4067 80.0555C18.796 80.0961 19.1019 80.0196 19.4171 79.9408" stroke="#FFFEFE" stroke-width="5" stroke-linecap="round"/>
<path d="M86.3911 100.334C86.6205 105.428 87.0863 107.124 87.8546 109.401C88.7523 112.062 90.9379 113.534 93.7965 115.584C95.3422 116.692 98.1914 116.556 100.675 116.364C102.393 116.231 103.92 115.323 105.426 114.243C107.702 112.318 110.177 109.993 111.799 108.643C112.189 108.369 112.495 108.292 112.81 108.213" stroke="#FFFEFE" stroke-width="5" stroke-linecap="round"/>
<circle cx="69.9941" cy="82.5" r="8.5" fill="#FFFEFE" stroke="#FFFEFE"/>
<circle cx="135.994" cy="100.5" r="8.5" fill="#FFFEFE" stroke="#FFFEFE"/>
<path d="M117.665 18.2729C115.577 17.0202 113.353 16.3748 111.457 16.5314C110.3 16.6269 109.655 17.637 108.918 18.3725C107.446 19.8419 107.858 24.043 109.274 27.1226C110.662 30.1424 117.937 29.345 122.977 28.1903C126.09 27.4768 131.015 23.7836 134.373 21.1263C135.959 19.8713 135.697 15.4574 135.33 11.9033C135.179 10.4455 134.017 8.58323 132.649 6.68673C131.136 4.5895 126.972 3.73365 123.212 2.98391C121.999 2.67073 120.417 2.45561 118.627 2.50781C117.88 2.56001 117.463 2.6644 116.083 2.77195" stroke="#FFFEFE" stroke-width="5" stroke-linecap="round"/>
</svg>
