<svg width="844" height="1085" viewBox="0 0 844 1085" fill="none" xmlns="http://www.w3.org/2000/svg">
<path d="M411.58 55.5495C410.962 51.865 411.778 45.2627 412.606 41.3496C414.021 34.6662 414.131 28.3943 424 21.9063C428.943 18.6572 435.936 13.1497 441.5 11.4064C445.276 10.2231 444.573 9.74522 456.5 4.90631C463.5 2.06624 468.982 6.60525 470.5 7.90631C477.5 13.9063 473.597 17.8149 473.712 23.4868C473.782 26.9942 464.584 30.7722 460.427 36.166C458.197 39.0591 455.274 41.1085 451.88 44.2056C449.005 46.8289 444.567 46.0664 440.651 47.8159C436.335 49.7439 431.585 52.0381 427.158 54.5109C421.1 57.8954 413.682 55.5495 409.531 57.1908C405.471 58.796 401.293 60.6929 398.403 63.6756C394.582 67.6199 391.612 72.0182 387.483 74.8062C384.745 76.6546 385.418 81.6991 384.59 87.4669C383.814 92.8672 379.038 96.3256 376.658 99.534C374.609 102.296 375.317 106.637 373.774 110.04C371.943 114.081 368.319 116.12 364.202 119.007C360.721 121.447 355.559 122.722 343.013 124.055C339.69 125.177 337.038 127.421 335.672 130.923C334.306 134.425 334.306 139.117 334.306 143.951" stroke="white" stroke-width="7.95745" stroke-linecap="round"/>
<path d="M409.726 59.2586C409.114 57.2062 406.647 52.2854 403.658 48.2486C400.008 43.3192 397.584 37.8567 394.694 34.0301C390.95 29.0727 389.746 25.4805 386.763 22.3833C383.488 18.983 378.63 16.6156 372.554 15.781C367.931 15.1461 363.584 13.1042 359.565 11.8678C355.089 10.4905 349.996 10.4213 345.962 9.49706C341.358 8.44216 336.383 12.8817 333.697 15.8707C332.481 17.2243 331.833 20.6957 332.037 25.533C332.246 30.4743 335.332 33.0719 340.568 38.8366C344.402 43.0574 350.564 45.4358 355.306 47.9179C359.702 50.2192 364.573 50.6039 385.115 51.423C402.324 52.1092 411.976 58.2201 415.79 59.3575C419.375 60.4265 424.933 64.5875 430.111 68.0061C434.266 70.7502 437.532 72.8465 442.06 79.2201C445.45 83.9912 447.225 87.473 449.281 90.1591C451.416 92.9492 452.381 96.1278 453.713 99.942C455.137 104.02 458.143 107.255 461.435 110.043C464.503 112.642 466.179 115.91 468.547 118.698C471.207 121.831 473.177 125.183 474.735 128.997C475.107 129.907 475.452 130.747 476.07 131.167C479.161 131.995 481.634 133.232 483.482 133.748C484.515 133.856 485.739 133.652 487 133.442" stroke="white" stroke-width="7.95745" stroke-linecap="round"/>
<path d="M319.886 45.2123C310.783 44.7537 284.655 41.9154 249.298 41.5897C230.076 41.4126 231 47.4885 170.5 65.4884C162.371 67.907 101.394 44.0209 90 49.9885C67.5 61.7728 62.8546 67.5399 55.6068 74.7949C52.4086 77.9963 47.8807 95.7531 44.6454 99.0302C37.4858 106.282 32.4585 126.589 29.4398 138.839C28.3747 143.161 21.9828 145.087 18.0002 151.325C11.9371 160.823 12.4933 183.8 13.9802 199.041C15.0929 210.446 17.9628 222.059 20.9516 233.578C24.6495 247.831 25.9429 260.2 28.4236 280.889C34.007 327.455 10.9703 338.534 9.46093 360.546C8.37893 376.325 9.92426 391.836 13.1821 404.017C16.4128 416.096 20.415 427.371 21.9019 439.551C23.3272 451.227 25.8845 462.905 28.8733 484.197C38.2 550.637 22.4174 567.535 20.669 578.403C18.8178 589.91 15.9317 604.334 13.451 620.818C9.26968 648.603 14.4373 663.598 17.1646 675.136C20.0338 687.276 21.9094 697.829 24.39 709.023C27.3632 722.438 27.887 738.576 26.6467 751.803C25.6427 762.509 19.9368 779.362 18.4274 794.898C16.1642 818.195 17.9044 857.696 24.6217 872.542C31.3364 887.381 39.3043 899.192 45.0577 912.992C55.42 937.845 37.8696 955.771 34.1261 966.985C29.0652 982.144 36.3154 1003.19 39.3341 1044.51C39.9742 1053.27 42.293 1054.52 44.2955 1055.52C56.9463 1061.81 86.5274 1057.84 111.245 1050.96C125.069 1047.11 136.919 1041.41 166 1040.72C185.992 1040.24 195.709 1049.9 205.191 1054.53C213.517 1058.59 219.141 1069.64 229.572 1074.93C251.046 1085.82 262.449 1080.85 283.101 1080.87C297.171 1080.89 308.775 1073 324.713 1067.4C343.355 1060.85 364.068 1054.56 379.998 1050.61C399.236 1045.84 426.176 1044.02 446.768 1047.94C460.437 1050.55 468.198 1054.52 476.671 1056.51C487.746 1059.12 507.441 1066.32 528.684 1070.33C553.373 1074.99 589.006 1077.58 617.863 1070.37C628.227 1067.78 634.585 1059.85 646.025 1048.99C656.8 1038.76 673.888 1033.51 684.394 1030.21C702.319 1024.56 729.689 1030.83 745.395 1036.1C761.321 1041.44 785.49 1037.46 794.979 1031.87C800.548 1028.58 805.455 1024.95 809.184 1021.67C813.132 1018.2 814.93 1008.54 814.452 993.794C813.188 954.829 797.027 944.716 794.77 933.503C792.695 923.193 791.528 911.156 790.287 898.965C788.528 881.677 796.459 859.236 806.927 845.328C818.683 829.71 829.844 824.925 837.084 813.416C843.235 803.638 840.843 786.784 838.616 775.245C835.016 756.59 814.033 727.047 804.006 700.257C799.133 687.241 799 673.587 794.038 649.65C784.611 604.168 797.505 588.066 800.232 574.544C802.524 563.18 802.975 551.189 807.204 539.67C812.376 525.581 810.955 490.228 808.975 467.604C807.894 455.257 800.016 446.56 793.298 435.04C785.458 421.596 784.085 410.354 781.821 393.277C779.386 374.91 776.584 331.032 778.317 300.808C779.035 288.285 786.028 277.454 791.259 264.602C795.543 254.074 796.997 243.222 798.745 226.491C803.018 185.606 790.063 174.798 778.123 157.031C774.071 151.002 771.129 144.495 767.393 134.348C757.236 106.762 767.617 82.7632 760.429 64.5517C755.941 53.1804 742.75 52.3613 725.348 45.7776C712.146 40.7831 694.033 41.1482 680.725 44.4253C670.577 46.9243 656.613 51.6506 644.867 55.2831C634.082 58.6183 634.642 61.1957 618.667 62.2123C605.52 63.0491 592.914 59.8829 572.53 55.2831C554.612 51.3151 541.838 46.7646 533.424 45.7776C526.983 45.442 509.451 45.4321 498.273 45.4321" stroke="white" stroke-width="6" stroke-linecap="round"/>
</svg>
