<svg width="426" height="337" viewBox="0 0 426 337" fill="none" xmlns="http://www.w3.org/2000/svg">
<path d="M166.506 175.487C160.015 198.606 155.85 205.36 152.127 211.986C147.121 220.895 143.299 224.079 132.656 231.232C125.542 236.013 106.064 233.985 93.3982 233.08C86.1052 232.559 79.9313 228.01 75.3971 226.84C70.8787 225.675 66.9207 222.301 60.4328 217.754C55.5399 213.714 51.8345 211.116 48.6933 208.258C47.8784 207.474 46.959 206.702 46.0118 205.906" stroke="white" stroke-width="5.78374" stroke-linecap="round"/>
<path d="M30.7674 146.589C18.9747 154.402 16.7229 157.38 13.94 164.251C9.20027 175.954 18.2837 184.504 21.7225 188.713C23.4085 190.107 26.8122 192.653 31.0803 195.787C32.8224 196.967 33.7042 197.315 35.994 197.853" stroke="white" stroke-width="5.78374" stroke-linecap="round"/>
<path d="M174.46 133.821C176.083 130.267 176.44 127.102 176.401 122.842C176.35 117.367 174.647 111.561 173.388 106.659C171.164 98.0039 170.408 95.171 169.909 92.9127C169.228 89.8315 167.076 87.3007 165.137 84.864C162.503 81.5539 161.753 79.8067 160.041 77.745C158.846 76.3054 157.967 74.8407 153.484 70.8339C146.936 64.9811 141.558 62.0099 140.569 61.4509C137.844 59.91 136.059 58.2685 134.302 57.3767C132.849 56.6391 130.125 54.7182 127.99 53.9106C126.637 53.399 122.476 51.8138 116.085 49.9431C113.281 49.1222 111.301 48.814 105.782 48.5766C100.263 48.3393 91.2483 48.2466 86.1135 48.2452C78.1574 48.243 74.9446 49.8364 70.6658 51.2338C67.2637 52.3449 63.228 53.2014 59.6281 54.3221C54.9229 55.787 53.6589 56.8585 50.7784 57.6042C48.2019 58.2713 45.9073 59.5718 41.6786 61.0647C37.8483 62.417 34.0176 64.4311 29.6848 67.1009C27.3992 68.5093 26.1633 70.7061 24.4026 73.234C23.7086 74.2303 23.0016 75.1103 20.8108 78.8728C18.9287 82.1051 15.3176 87.9186 12.5413 93.2442C9.76495 98.5698 7.89061 103.204 6.88041 105.916C5.14139 110.585 4.69911 113.305 3.26023 122.719C2.6238 126.883 2.98435 132.95 3.0736 136.378C3.21236 141.708 4.68829 145.96 5.59705 149.215C6.098 151.008 6.67892 152.724 6.99536 154.32C7.3091 155.819 7.85275 156.943 7.942 157.69C8.03126 158.067 8.20977 158.437 8.39368 159.1" stroke="white" stroke-width="5.78374" stroke-linecap="round"/>
<path d="M132.605 85.5311C137.21 90.6866 139.981 94.5629 143.527 99.31C145.13 101.457 149.187 106.255 153.984 112.577C156.872 116.382 159.086 118.84 160.838 121.423C162.397 122.622 163.613 123.461 164.394 124.059C164.9 124.383 165.631 124.748 166.384 125.679" stroke="white" stroke-width="5.78374" stroke-linecap="round"/>
<path d="M130.667 86.9155C129.205 92.0322 127.721 97.0437 126.476 100.872C125.838 102.836 124.858 105.536 123.296 110.047C120.62 117.779 118.213 119.117 117.104 120.781C116.465 121.739 115.995 122.813 115.351 123.642C115.03 124.057 114.525 124.289 113.193 119.816C111.861 115.343 109.669 106.114 108.493 101.04C107.318 95.9667 107.226 95.3271 107.179 94.6778C107.132 94.0285 107.132 93.3889 106.264 94.4757C100.228 102.033 98.4604 105.826 96.6649 108.318C94.7769 110.938 91.6382 113.579 90.1555 115.336C88.2535 117.589 84.7162 119.582 82.3613 121.426C79.9798 123.291 77.7056 124.377 71.7209 126.731C63.6894 129.889 60.5336 129.549 57.9503 129.877C56.7514 130.014 55.1815 130.291 50.8262 130.568C47.476 130.662 41.811 130.662 35.9744 130.662" stroke="white" stroke-width="5.78374" stroke-linecap="round"/>
<path d="M151.076 134.424C148.036 132.73 144.481 131.675 140.789 132.239C140.069 132.586 139.577 133.104 139.09 133.57C138.603 134.035 138.136 134.433 137.294 134.762" stroke="white" stroke-width="5.78374" stroke-linecap="round"/>
<path d="M84.0988 140.202C82.2236 138.623 80.775 137.659 79.4316 137.396C77.3469 137.215 74.9425 137.815 72.9551 139.003C72.1109 139.519 71.6005 139.858 71.0746 140.208" stroke="white" stroke-width="5.78374" stroke-linecap="round"/>
<path d="M123.371 190.994C121.164 194.427 117.943 196.931 113.804 197.861C111.75 198.056 109.788 197.688 108.042 197.009C106.296 196.329 104.825 195.348 103.309 194.337" stroke="white" stroke-width="5.78374" stroke-linecap="round"/>
<path d="M50.5919 158.621C51.7219 158.633 52.8519 158.646 53.5305 158.659C54.2091 158.672 54.402 158.686 54.7127 158.674C55.0233 158.662 55.4458 158.625 55.9785 158.593" stroke="white" stroke-width="5.09099" stroke-linecap="round"/>
<path d="M58.0296 153.021C58.5221 155.621 58.9046 157.167 59.1258 157.803C59.4807 158.822 59.6831 161.293 60.5917 164.886C61.5576 168.706 62.6078 170.784 62.8187 171.542C63.5487 174.169 65.1087 175.635 65.821 176.89C66.3462 177.816 67.1821 178.382 68.872 179.62C70.1932 180.588 72.2593 181.332 73.3416 181.657C74.7532 182.082 78.2779 182.704 80.885 182.491C82.3667 182.369 84.6584 181.56 85.9237 181.325C87.8017 180.977 90.5447 179.537 93.1641 177.235C95.0995 175.533 95.1605 174.328 95.9164 173.41C97.1558 171.907 97.2936 169.646 97.6488 168.623C97.8708 167.441 98.1475 166.171 98.5908 163.077C98.7826 160.916 99.0521 156.84 99.3297 152.641" stroke="white" stroke-width="5.09099" stroke-linecap="round"/>
<path d="M110.597 159.275C113.938 159.133 117.278 158.991 119.132 158.927C120.986 158.863 121.251 158.881 121.525 158.901" stroke="white" stroke-width="5.56545" stroke-linecap="round"/>
<path d="M122.132 149.644C122.101 150.115 122.519 152.916 123.64 157.773C125.42 165.48 128.191 167.456 128.882 169.06C129.755 171.085 131.284 172.461 132.838 173.688C134.599 175.078 136.816 176.285 140.11 176.915C149.327 178.679 151.311 177.231 152.964 176.988C154.712 176.73 155.925 175.407 157.131 173.934C158.266 172.547 158.856 170.353 159.631 168.408C160.517 166.184 160.604 164.646 161.167 163.051C161.464 160.874 161.861 159.469 162.507 156.617C162.712 154.691 162.945 151.154 163.186 147.509" stroke="white" stroke-width="5.56545" stroke-linecap="round"/>
<path d="M163.614 156.699L173.463 154.28" stroke="white" stroke-width="5.56545" stroke-linecap="round"/>
<path d="M143.667 142.643C143.274 142.665 142.88 142.869 142.501 143.281C142.12 143.695 141.773 144.301 141.488 145.071C140.918 146.61 140.622 148.734 140.751 151.075C140.881 153.417 141.411 155.496 142.148 156.962C142.516 157.696 142.928 158.259 143.352 158.628C143.775 158.996 144.189 159.155 144.582 159.133C144.974 159.112 145.368 158.908 145.747 158.496C146.128 158.082 146.476 157.476 146.761 156.706C147.331 155.168 147.628 153.042 147.498 150.701C147.368 148.36 146.838 146.282 146.101 144.815C145.733 144.082 145.32 143.517 144.896 143.148C144.474 142.781 144.059 142.621 143.667 142.643Z" fill="white" stroke="white" stroke-width="0.750707"/>
<path d="M78.1548 146.518C77.7873 146.544 77.4154 146.747 77.0563 147.164C76.696 147.581 76.3696 148.191 76.1048 148.966C75.5757 150.512 75.3164 152.643 75.4712 154.984C75.6259 157.325 76.1632 159.399 76.891 160.858C77.2554 161.588 77.6589 162.147 78.071 162.51C78.4815 162.872 78.8768 163.021 79.2442 162.995C79.6116 162.969 79.9836 162.766 80.3427 162.35C80.7031 161.932 81.0294 161.322 81.2942 160.547C81.8233 159 82.0826 156.87 81.9278 154.529C81.773 152.188 81.2357 150.114 80.5079 148.655C80.1437 147.926 79.74 147.367 79.328 147.004C78.9175 146.642 78.5222 146.492 78.1548 146.518Z" fill="white" stroke="white" stroke-width="0.750707"/>
<path d="M263.054 198.336C266.777 202.31 269.471 203.822 271.976 206.577C275.248 210.177 279.065 212.606 281.657 214.43C285.854 217.383 290.643 220.317 293.768 223.291C296.096 225.507 298.867 226.929 302.284 228.356C308.052 230.766 313.808 225.817 318.559 223.895C322.329 222.369 324.776 219.903 329.697 217.835C334.328 215.889 336.917 213.303 339.05 211.607C341.559 209.611 344.793 208.359 347.397 206.707C349.704 205.244 351.184 202.49 353.654 199.722C356.044 197.043 358.119 194.144 361.338 190.043C369.482 179.668 368.88 173.544 370.393 170.121C371.62 167.346 372.469 163.929 373.589 161.267C375.117 157.635 375.869 152.885 376.629 149.874C377.964 147.391 379.319 139.687 379.348 134.348C379.256 133.627 379.174 132.838 379.089 132.025" stroke="white" stroke-width="5.94322" stroke-linecap="round"/>
<path d="M243.65 159.765C245.028 167.659 246.055 171.741 249.735 179.504C251.556 183.347 253.521 186.352 255.827 188.748C257.579 190.568 258.535 193.181 260.048 195.267C260.703 196.443 261.435 197.462 262.306 198.19C262.748 198.528 263.189 198.803 263.577 199.786" stroke="white" stroke-width="5.94322" stroke-linecap="round"/>
<path d="M245.783 159.611C245.754 158.672 246.646 146.612 247.972 139.333C248.667 135.516 249.686 130.426 250.518 125.979C251.25 122.063 253.11 120.267 253.941 118.338C254.905 116.097 256.336 113.502 257.629 111.617C258.954 109.683 260.681 107.316 262.209 105.451C264.231 102.981 265.727 101.189 267.22 99.7348C269.278 97.7307 271.448 94.1913 273.149 92.3419C277.486 87.6274 284.592 80.5891 287.328 78.651C287.802 78.3145 288.281 77.8605 288.878 77.7926C291.567 77.4866 293.318 80.6706 295.369 82.0425C297.481 83.4549 299.572 85.4953 301.378 87.0793C303.127 88.6137 305.151 90.1368 306.97 91.4905C308.907 92.9326 311.438 94.6114 313.56 96.5799C315.37 98.2598 317.41 98.8303 318.898 99.9658C320.515 101.201 322.008 102.553 323.759 104.012C325.492 105.456 326.88 107.129 328.874 108.495C330.725 109.764 332.355 111.527 334 113.506C336.072 115.999 338.113 117.952 339.294 119.891C340.376 121.668 341.669 124.051 342.844 125.994C344.231 128.289 346.079 131.063 346.87 133.317C347.728 135.763 349.693 137.76 351.081 139.894C352.734 142.433 353.833 145.094 354.759 147.187C355.722 149.366 360.695 159.437 363.77 165.402C364.467 167.411 365.69 169.408 366.581 171.258C366.771 171.749 366.959 172.233 367.153 172.732" stroke="white" stroke-width="5.94322" stroke-linecap="round"/>
<path d="M239.277 109.163C238.59 116.511 238.822 119.237 238.908 121.865C239.08 127.107 240.402 135.689 240.711 137.653C241.102 140.146 241.115 142.958 241.771 145.585C242.113 149.853 242.383 152.172 242.928 154.264C243.048 154.748 243.17 155.173 243.726 156.278" stroke="white" stroke-width="5.94322" stroke-linecap="round"/>
<path d="M247.727 68.7836C251.508 64.4722 253.726 61.9546 254.427 61.3719C255.32 60.6303 258.48 58.6799 262.883 55.4003C267.902 51.6619 270.783 49.6766 273.993 46.7144C276.451 44.4449 278.307 44.0237 281.939 41.6104C286.023 38.897 288.919 39.0886 291.62 38.5248C293.34 38.1656 295.123 37.958 296.968 37.4006C298.474 36.9453 301.471 36.8506 304.264 36.2149C306.713 35.6576 309.658 35.4204 312.257 34.9335C314.74 34.4682 316.51 34.3527 322.396 34.6999C327.8 35.0186 338.068 36.2039 344.421 37.0407C355.505 38.5008 356.947 39.7591 358.441 40.3436C360.15 41.013 361.59 41.4121 363.244 41.9715C363.642 42.0916 363.961 42.1214 364.317 42.2352C364.673 42.3489 365.057 42.5457 366.132 43.2995" stroke="white" stroke-width="5.94322" stroke-linecap="round"/>
<path d="M382.261 53.5401C384.617 55.6154 386.373 57.0829 387.718 58.2864C389.751 60.1049 391.152 62.3269 392.052 63.6398C392.604 64.4439 394.414 66.7755 396.652 70.3784C398.328 73.0767 398.971 74.5369 399.705 75.7454C401.465 78.6452 402.065 80.851 402.677 82.4943C403.21 83.9294 403.686 85.457 404.002 87.4169C404.232 88.839 404.338 89.7932 404.566 90.7815C404.828 91.9192 404.856 93.0033 405.101 94.1389C405.35 95.2927 405.385 96.7378 405.649 98.2872C405.728 98.7055 405.8 99.1759 405.847 99.6221C405.894 100.068 405.913 100.476 405.934 100.896" stroke="white" stroke-width="5.94322" stroke-linecap="round"/>
<path d="M409.159 97.5938C414.538 103.201 416.896 105.82 418.356 108.464C420.021 111.478 420.757 113.901 421.55 117.17C423.737 126.189 421.084 132.959 420.091 135.531C419.326 137.509 418.732 139.857 417.767 142.178C415.96 143.815 414.585 145.685 413.035 147.248C412.697 147.619 412.463 147.994 412.167 148.976" stroke="white" stroke-width="5.94322" stroke-linecap="round"/>
<path d="M332.975 222.233C337.372 221.617 341.769 221 346.83 220.088C351.891 219.176 357.484 217.986 361.169 216.706C364.855 215.426 366.464 214.093 367.541 213.2C368.617 212.308 369.112 211.897 370.405 210.51" stroke="white" stroke-width="5.94322" stroke-linecap="round"/>
<path d="M261.312 204.11C262.141 207.527 263.568 209.504 265.584 212.569C269.627 218.601 273.259 221.834 274.159 222.665C274.638 223.115 275.161 223.621 276.387 224.206" stroke="white" stroke-width="5.94322" stroke-linecap="round"/>
<path d="M265.602 225.328C267.52 234.852 268.772 236.956 270.748 239.549C272.447 241.778 276.269 243.018 279.939 244.449C285.836 246.749 289.271 247.69 291.185 248.14C292.551 248.461 293.889 248.846 295.066 249.318C296.483 249.887 302.485 250.559 310.627 251.276C314.228 251.593 317.114 251.656 321.533 251.844C328.649 252.148 331.002 250.777 333.544 250.292C336.602 249.708 341.241 248.838 344.199 247.977C346.618 247.272 348.146 247.028 349.959 246.563C352.116 246.01 354.728 244.475 358.035 243.6C363.034 242.277 366.522 239.768 368.075 239.182C369.825 238.523 371.296 237.22 372.8 236.223C374.435 235.138 375.814 234.555 377.07 233.267C378.994 231.293 381.269 228.629 384.073 224.811C385.707 222.585 386.259 220.923 386.759 219.471C386.887 219.073 387.018 218.636 387.269 217.889C387.52 217.142 387.887 216.098 388.265 215.023" stroke="white" stroke-width="5.94322" stroke-linecap="round"/>
<path d="M351.882 253.279C352.32 259.972 352.723 264.368 352.276 273.453C351.875 281.604 350.221 296.888 349.078 306.261C347.079 322.65 344.477 325.272 343.601 328.885C343.233 330.403 342.655 331.826 342.419 332.88C342.352 333.178 343.073 332.953 343.514 332.591C345.414 331.033 347.019 328.09 349.339 326.351C351.26 324.911 352.764 322.709 355.089 320.911C355.621 320.499 355.855 319.91 356.334 319.814C358.636 319.351 361.2 322.942 363.383 324.898C365.224 326.547 367.854 327.999 372.459 329.647C378.27 331.727 383.095 330.38 384.048 329.532C385.141 327.214 385.95 324.346 386.55 321.506C386.699 320.647 386.81 319.46 386.525 318.2" stroke="white" stroke-width="5.94322" stroke-linecap="round"/>
<path d="M374.42 236.44C375.503 243.524 376.075 245.988 377.5 255.833C378.324 261.525 379.381 265.249 380.144 268.527C382.622 279.164 382.301 282.853 383.323 286.309C384.164 289.154 384.787 292.22 385.337 294.965C386.217 299.36 386.686 303.557 387.197 305.957C387.33 306.709 387.376 307.645 387.44 308.397C387.505 309.148 387.588 309.688 388.072 310.282" stroke="white" stroke-width="5.94322" stroke-linecap="round"/>
<path d="M362.62 246.221C364.492 262.11 364.939 265.901 366.024 272.901C367.762 284.112 370.035 291.925 370.012 293.596C370.645 298.295 371.413 301.588 372.435 307.854C372.701 309.372 372.878 310.32 373.023 311.696" stroke="white" stroke-width="5.94322" stroke-linecap="round"/>
<path d="M268.817 140.777C269.944 140.882 270.962 141.749 271.661 143.207C272.356 144.656 272.698 146.626 272.498 148.771C272.297 150.915 271.595 152.787 270.643 154.083C269.686 155.386 268.526 156.048 267.398 155.943C266.271 155.837 265.255 154.971 264.556 153.513C263.861 152.064 263.517 150.093 263.718 147.949C263.918 145.805 264.621 143.932 265.573 142.637C266.531 141.334 267.69 140.672 268.817 140.777Z" fill="white" stroke="white" stroke-width="0.801662"/>
<path d="M327.234 144.631C328.361 144.737 329.378 145.603 330.077 147.061C330.772 148.511 331.115 150.481 330.914 152.625C330.714 154.769 330.012 156.642 329.06 157.938C328.103 159.241 326.942 159.903 325.815 159.798C324.688 159.692 323.671 158.826 322.972 157.368C322.277 155.918 321.934 153.948 322.134 151.804C322.335 149.66 323.038 147.787 323.99 146.492C324.947 145.189 326.107 144.526 327.234 144.631Z" fill="white" stroke="white" stroke-width="0.801662"/>
<path d="M263.206 142.594C263.36 142.845 263.514 143.097 263.918 143.553C264.323 144.009 264.973 144.662 265.355 145.122C265.738 145.581 265.833 145.827 265.931 146.081" stroke="white" stroke-width="4.80997" stroke-linecap="round"/>
<path d="M321.799 145.486C322.625 146.155 323.451 146.825 324.066 147.366C324.68 147.906 325.058 148.297 325.36 148.627C325.661 148.957 325.874 149.214 326.627 149.528" stroke="white" stroke-width="4.80997" stroke-linecap="round"/>
<path d="M407.149 143.867C407.543 149.345 408.007 154.232 408.233 159.159C408.529 165.621 406.989 171.314 405.616 175.638C404.001 180.721 402.059 184.828 401.291 187.557C400.483 189.49 399.298 192.35 398.01 195.72C397.485 197.007 397.218 197.436 396.879 198.559" stroke="white" stroke-width="5.94031" stroke-linecap="round"/>
<path d="M248.62 115.691C252.05 113.187 252.825 112.795 253.918 112.504C255.79 112.007 257.998 111.889 259.709 111.771C260.422 111.722 261.171 111.768 262.644 111.767C267.775 111.763 269.097 112.693 270.216 113.145C272.07 113.894 273.621 114.321 275.03 114.939C275.832 115.546 277.036 116.492 278.275 117.65C278.533 117.886 278.752 117.998 278.977 118.114" stroke="white" stroke-width="5.94031" stroke-linecap="round"/>
<path d="M311.195 119.598C311.468 119.624 313.446 119.121 317.181 118.221C319.064 117.768 320.982 117.603 324.919 117.758C328.855 117.914 334.767 118.467 337.922 118.808C342.239 119.275 344.347 120.289 345.4 120.481C347.021 120.956 349.254 121.81 350.765 122.303C351.146 122.453 351.579 122.723 352.164 123.014" stroke="white" stroke-width="5.94031" stroke-linecap="round"/>
<path d="M308.586 187.574C303.897 188.195 302.707 188.32 301.554 188.486C300.37 188.656 299.251 188.742 298.523 188.772C296.158 188.869 292.734 188.292 291.538 188.061C291.267 187.997 291.081 187.902 290.911 187.826C290.74 187.751 290.589 187.698 290.211 187.504" stroke="white" stroke-width="5.94031" stroke-linecap="round"/>
<path d="M205.03 22.1878C208.373 16.6955 213.2 12.0752 218.739 9.24216C222.569 7.28345 225.523 7.71531 227.269 8.1929C228.16 8.43662 228.657 9.62568 228.845 11.1326C229.033 12.6396 228.794 14.6694 225.328 18.3418C221.862 22.0142 215.175 27.2677 211.134 30.3322C205.899 34.1132 204.071 35.3289 203.107 36.5301C202.74 37.2537 202.621 38.2089 202.498 39.193" stroke="white" stroke-width="6" stroke-linecap="round"/>
<path d="M204.307 21.826C202.86 11.8291 202.621 7.49096 201.659 5.07043C201.398 4.41598 200.819 3.74981 200.095 3.38076C198.564 2.59982 196.836 3.13111 195.095 4.0284C191.914 5.66863 190.2 8.78987 189.538 11.015C188.058 15.9868 189.227 21.2037 191.931 25.2451C196.101 30.9871 201.608 35.5387 205.926 39.4246C206.474 40.0324 206.832 40.51 207.563 41.0021" stroke="white" stroke-width="6" stroke-linecap="round"/>
</svg>
