<svg width="426" height="334" viewBox="0 0 426 334" fill="none" xmlns="http://www.w3.org/2000/svg">
<path d="M166.507 172.485C160.015 195.604 155.85 202.358 152.127 208.984C147.122 217.893 143.299 221.077 132.657 228.23C125.542 233.011 106.064 230.983 93.3984 230.078C86.1054 229.557 79.9316 225.008 75.3973 223.838C70.8789 222.673 66.9209 219.299 60.433 214.752C55.5401 210.712 51.8347 208.114 48.6935 205.256C47.8786 204.472 46.9592 203.7 46.012 202.904" stroke="white" stroke-width="5.78374" stroke-linecap="round"/>
<path d="M30.7676 143.587C18.9749 151.399 16.7231 154.378 13.9403 161.249C9.20052 172.952 18.2839 181.502 21.7227 185.711C23.4087 187.105 26.8124 189.651 31.0805 192.785C32.8226 193.965 33.7044 194.313 35.9943 194.851" stroke="white" stroke-width="5.78374" stroke-linecap="round"/>
<path d="M174.46 130.819C176.083 127.265 176.44 124.1 176.401 119.84C176.35 114.365 174.647 108.559 173.388 103.657C171.164 95.0018 170.409 92.169 169.91 89.9107C169.229 86.8294 167.076 84.2987 165.137 81.862C162.503 78.5518 161.754 76.8047 160.042 74.743C158.846 73.3034 157.967 71.8386 153.484 67.8318C146.936 61.979 141.558 59.0079 140.569 58.4489C137.844 56.9079 136.059 55.2665 134.303 54.3747C132.85 53.637 130.125 51.7161 127.99 50.9086C126.637 50.397 122.477 48.8118 116.085 46.9411C113.281 46.1202 111.301 45.812 105.782 45.5746C100.263 45.3373 91.2485 45.2446 86.1137 45.2432C78.1576 45.241 74.9448 46.8344 70.6661 48.2318C67.2639 49.3429 63.2282 50.1994 59.6283 51.3201C54.9231 52.7849 53.6591 53.8565 50.7787 54.6022C48.2021 55.2693 45.9076 56.5698 41.6788 58.0627C37.8486 59.4149 34.0179 61.4291 29.685 64.0989C27.3994 65.5072 26.1635 67.704 24.4028 70.232C23.7089 71.2283 23.0018 72.1083 20.811 75.8707C18.9289 79.1031 15.3179 84.9166 12.5415 90.2422C9.7652 95.5677 7.89085 100.202 6.88066 102.914C5.14163 107.583 4.69936 110.303 3.26048 119.717C2.62404 123.881 2.98459 129.948 3.07385 133.376C3.2126 138.705 4.68854 142.958 5.5973 146.212C6.09825 148.006 6.67916 149.722 6.9956 151.318C7.30935 152.817 7.853 153.941 7.94225 154.688C8.0315 155.065 8.21001 155.435 8.39393 156.098" stroke="white" stroke-width="5.78374" stroke-linecap="round"/>
<path d="M132.605 82.5291C137.21 87.6845 139.981 91.5608 143.527 96.3079C145.13 98.4549 149.188 103.253 153.984 109.575C156.872 113.38 159.086 115.838 160.839 118.421C162.397 119.62 163.613 120.459 164.394 121.057C164.9 121.381 165.631 121.746 166.385 122.676" stroke="white" stroke-width="5.78374" stroke-linecap="round"/>
<path d="M130.667 83.9133C129.205 89.0301 127.721 94.0416 126.477 97.8694C125.838 99.8334 124.858 102.533 123.297 107.045C120.621 114.777 118.213 116.114 117.104 117.778C116.466 118.737 115.995 119.811 115.352 120.64C115.03 121.054 114.525 121.286 113.193 116.813C111.862 112.34 109.669 103.112 108.493 98.0383C107.318 92.9645 107.227 92.3249 107.18 91.6756C107.133 91.0263 107.133 90.3868 106.265 91.4735C100.229 99.0305 98.4607 102.824 96.6651 105.316C94.7771 107.936 91.6384 110.577 90.1557 112.334C88.2538 114.587 84.7164 116.58 82.3616 118.424C79.98 120.288 77.7058 121.375 71.7211 123.729C63.6897 126.887 60.5338 126.547 57.9505 126.875C56.7517 127.012 55.1817 127.289 50.8264 127.566C47.4762 127.66 41.8113 127.66 35.9747 127.66" stroke="white" stroke-width="5.78374" stroke-linecap="round"/>
<path d="M151.076 131.422C148.036 129.728 144.481 128.673 140.789 129.237C140.07 129.584 139.577 130.102 139.09 130.568C138.603 131.033 138.137 131.431 137.294 131.76" stroke="white" stroke-width="5.78374" stroke-linecap="round"/>
<path d="M84.099 137.2C82.2239 135.621 80.7752 134.657 79.4319 134.394C77.3472 134.213 74.9428 134.813 72.9553 136.001C72.1112 136.517 71.6007 136.856 71.0748 137.206" stroke="white" stroke-width="5.78374" stroke-linecap="round"/>
<path d="M123.371 187.992C121.164 191.424 117.943 193.929 113.804 194.859C111.75 195.054 109.788 194.686 108.042 194.007C106.296 193.327 104.825 192.346 103.309 191.335" stroke="white" stroke-width="5.78374" stroke-linecap="round"/>
<path d="M50.5921 155.619C51.7221 155.631 52.8521 155.643 53.5307 155.657C54.2093 155.67 54.4023 155.683 54.7129 155.672C55.0236 155.66 55.446 155.623 55.9788 155.591" stroke="white" stroke-width="5.09099" stroke-linecap="round"/>
<path d="M58.0299 150.019C58.5224 152.619 58.9048 154.165 59.126 154.8C59.481 155.82 59.6833 158.291 60.592 161.884C61.5578 165.704 62.6081 167.781 62.8189 168.54C63.5489 171.166 65.109 172.633 65.8213 173.888C66.3465 174.813 67.1823 175.38 68.8723 176.618C70.1934 177.586 72.2595 178.33 73.3418 178.655C74.7534 179.079 78.2781 179.702 80.8852 179.489C82.367 179.367 84.6586 178.557 85.9239 178.323C87.8019 177.975 90.545 176.535 93.1643 174.233C95.0998 172.531 95.1607 171.325 95.9167 170.408C97.1561 168.905 97.2938 166.644 97.6491 165.621C97.8711 164.439 98.1477 163.169 98.591 160.075C98.7828 157.914 99.0523 153.838 99.33 149.638" stroke="white" stroke-width="5.09099" stroke-linecap="round"/>
<path d="M110.597 156.273C113.938 156.131 117.279 155.988 119.132 155.924C120.986 155.861 121.252 155.879 121.525 155.898" stroke="white" stroke-width="5.56545" stroke-linecap="round"/>
<path d="M122.132 146.642C122.101 147.113 122.519 149.914 123.641 154.77C125.42 162.478 128.191 164.454 128.883 166.058C129.755 168.083 131.284 169.458 132.838 170.686C134.599 172.076 136.816 173.283 140.11 173.913C149.327 175.677 151.311 174.229 152.965 173.985C154.713 173.728 155.925 172.405 157.131 170.932C158.266 169.545 158.856 167.351 159.631 165.406C160.518 163.182 160.605 161.643 161.167 160.048C161.464 157.872 161.861 156.467 162.507 153.615C162.712 151.689 162.946 148.152 163.187 144.507" stroke="white" stroke-width="5.56545" stroke-linecap="round"/>
<path d="M163.614 153.697L173.463 151.278" stroke="white" stroke-width="5.56545" stroke-linecap="round"/>
<path d="M143.667 139.641C143.274 139.663 142.88 139.867 142.501 140.279C142.121 140.693 141.774 141.299 141.488 142.069C140.919 143.608 140.622 145.732 140.752 148.073C140.881 150.415 141.412 152.494 142.148 153.96C142.517 154.694 142.929 155.257 143.353 155.626C143.775 155.994 144.189 156.153 144.582 156.131C144.974 156.11 145.368 155.906 145.747 155.494C146.128 155.08 146.476 154.474 146.761 153.704C147.331 152.165 147.628 150.04 147.498 147.699C147.368 145.358 146.838 143.279 146.102 141.813C145.733 141.08 145.32 140.515 144.896 140.146C144.474 139.779 144.059 139.619 143.667 139.641Z" fill="white" stroke="white" stroke-width="0.750707"/>
<path d="M78.155 143.516C77.7875 143.541 77.4157 143.745 77.0566 144.162C76.6962 144.579 76.3698 145.189 76.105 145.963C75.5759 147.51 75.3166 149.641 75.4714 151.982C75.6262 154.323 76.1635 156.397 76.8913 157.855C77.2556 158.585 77.6592 159.145 78.0712 159.508C78.4817 159.87 78.877 160.019 79.2445 159.993C79.6119 159.967 79.9839 159.764 80.343 159.348C80.7033 158.93 81.0296 158.32 81.2944 157.545C81.8235 155.998 82.0829 153.868 81.9281 151.527C81.7732 149.186 81.236 147.112 80.5082 145.653C80.1439 144.924 79.7403 144.365 79.3283 144.002C78.9177 143.64 78.5225 143.49 78.155 143.516Z" fill="white" stroke="white" stroke-width="0.750707"/>
<path d="M263.054 195.334C266.777 199.308 269.472 200.82 271.976 203.575C275.249 207.175 279.065 209.604 281.657 211.428C285.854 214.381 290.643 217.315 293.768 220.289C296.096 222.505 298.868 223.926 302.285 225.354C308.053 227.763 313.808 222.815 318.559 220.892C322.329 219.367 324.777 216.901 329.697 214.833C334.329 212.887 336.917 210.301 339.05 208.605C341.56 206.608 344.793 205.357 347.398 203.705C349.704 202.242 351.184 199.488 353.654 196.72C356.044 194.041 358.119 191.142 361.339 187.041C369.482 176.666 368.88 170.542 370.394 167.119C371.621 164.343 372.469 160.927 373.589 158.265C375.117 154.633 375.869 149.883 376.629 146.872C377.964 144.389 379.319 136.685 379.348 131.346C379.257 130.625 379.174 129.836 379.089 129.023" stroke="white" stroke-width="5.94322" stroke-linecap="round"/>
<path d="M243.65 156.762C245.028 164.657 246.056 168.738 249.735 176.502C251.556 180.345 253.521 183.35 255.827 185.746C257.579 187.566 258.535 190.179 260.049 192.265C260.703 193.441 261.435 194.46 262.307 195.188C262.748 195.526 263.189 195.801 263.578 196.784" stroke="white" stroke-width="5.94322" stroke-linecap="round"/>
<path d="M245.783 156.609C245.755 155.67 246.646 143.61 247.972 136.331C248.667 132.514 249.687 127.423 250.518 122.977C251.25 119.061 253.11 117.265 253.941 115.336C254.905 113.095 256.336 110.5 257.629 108.615C258.955 106.681 260.681 104.314 262.209 102.449C264.231 99.979 265.727 98.1864 267.22 96.7327C269.278 94.7287 271.448 91.1892 273.15 89.3398C277.486 84.6253 284.592 77.587 287.328 75.6489C287.803 75.3124 288.281 74.8584 288.878 74.7905C291.567 74.4845 293.318 77.6685 295.37 79.0404C297.482 80.4528 299.573 82.4933 301.378 84.0772C303.127 85.6116 305.152 87.1347 306.97 88.4884C308.907 89.9305 311.439 91.6093 313.56 93.5778C315.37 95.2577 317.411 95.8282 318.898 96.9637C320.515 98.1988 322.009 99.5512 323.759 101.01C325.492 102.454 326.88 104.127 328.874 105.493C330.725 106.762 332.355 108.525 334 110.504C336.072 112.996 338.113 114.95 339.294 116.889C340.376 118.666 341.669 121.048 342.844 122.992C344.231 125.287 346.08 128.061 346.87 130.315C347.729 132.761 349.693 134.758 351.081 136.892C352.734 139.431 353.833 142.092 354.759 144.185C355.722 146.364 360.695 156.435 363.77 162.4C364.468 164.409 365.69 166.406 366.581 168.256C366.772 168.747 366.959 169.231 367.153 169.73" stroke="white" stroke-width="5.94322" stroke-linecap="round"/>
<path d="M239.278 106.161C238.59 113.509 238.822 116.235 238.908 118.863C239.08 124.105 240.403 132.687 240.711 134.651C241.102 137.143 241.115 139.956 241.771 142.583C242.114 146.851 242.384 149.17 242.929 151.261C243.048 151.746 243.171 152.171 243.727 153.276" stroke="white" stroke-width="5.94322" stroke-linecap="round"/>
<path d="M247.727 65.7815C251.509 61.4701 253.726 58.9525 254.427 58.3698C255.32 57.6282 258.48 55.6778 262.883 52.3982C267.902 48.6598 270.783 46.6745 273.993 43.7123C276.451 41.4429 278.308 41.0216 281.94 38.6084C286.024 35.8949 288.919 36.0865 291.62 35.5227C293.34 35.1635 295.123 34.9559 296.968 34.3985C298.475 33.9432 301.471 33.8485 304.264 33.2128C306.713 32.6555 309.658 32.4183 312.257 31.9314C314.74 31.4662 316.51 31.3506 322.397 31.6978C327.8 32.0165 338.069 33.2018 344.421 34.0386C355.505 35.4987 356.948 36.757 358.441 37.3415C360.151 38.0109 361.59 38.41 363.244 38.9694C363.642 39.0895 363.961 39.1193 364.317 39.2331C364.673 39.3468 365.057 39.5436 366.132 40.2974" stroke="white" stroke-width="5.94322" stroke-linecap="round"/>
<path d="M382.261 50.5381C384.617 52.6133 386.373 54.0809 387.719 55.2844C389.751 57.1028 391.152 59.3249 392.052 60.6377C392.604 61.4419 394.414 63.7735 396.652 67.3764C398.328 70.0747 398.971 71.5348 399.705 72.7434C401.465 75.6431 402.066 77.849 402.677 79.4922C403.211 80.9274 403.686 82.455 404.003 84.4149C404.232 85.837 404.338 86.7912 404.566 87.7794C404.829 88.9172 404.856 90.0013 405.101 91.1369C405.35 92.2907 405.385 93.7358 405.649 95.2851C405.728 95.7035 405.8 96.1739 405.847 96.6201C405.894 97.0662 405.914 97.4738 405.934 97.8937" stroke="white" stroke-width="5.94322" stroke-linecap="round"/>
<path d="M409.159 94.5917C414.538 100.199 416.896 102.818 418.356 105.462C420.021 108.476 420.757 110.899 421.55 114.168C423.737 123.187 421.085 129.957 420.091 132.529C419.327 134.507 418.732 136.855 417.768 139.176C415.96 140.813 414.585 142.683 413.035 144.246C412.697 144.617 412.464 144.992 412.167 145.974" stroke="white" stroke-width="5.94322" stroke-linecap="round"/>
<path d="M332.975 219.231C337.372 218.615 341.769 217.998 346.83 217.086C351.891 216.174 357.484 214.984 361.169 213.704C364.855 212.424 366.464 211.09 367.541 210.198C368.617 209.306 369.113 208.895 370.405 207.507" stroke="white" stroke-width="5.94322" stroke-linecap="round"/>
<path d="M261.312 201.108C262.141 204.524 263.568 206.502 265.585 209.566C269.628 215.599 273.26 218.832 274.159 219.663C274.638 220.113 275.162 220.619 276.387 221.204" stroke="white" stroke-width="5.94322" stroke-linecap="round"/>
<path d="M265.602 222.326C267.521 231.85 268.772 233.954 270.748 236.547C272.447 238.776 276.269 240.016 279.939 241.447C285.836 243.747 289.271 244.688 291.185 245.137C292.551 245.459 293.889 245.844 295.066 246.316C296.484 246.885 302.485 247.557 310.628 248.274C314.228 248.591 317.114 248.654 321.533 248.842C328.65 249.146 331.003 247.775 333.545 247.29C336.602 246.706 341.241 245.836 344.2 244.975C346.619 244.27 348.146 244.026 349.959 243.561C352.117 243.008 354.729 241.473 358.035 240.598C363.034 239.275 366.522 236.766 368.076 236.18C369.826 235.521 371.296 234.218 372.8 233.221C374.436 232.136 375.815 231.553 377.071 230.264C378.994 228.291 381.27 225.627 384.073 221.808C385.707 219.583 386.26 217.921 386.759 216.469C386.887 216.071 387.018 215.634 387.269 214.887C387.52 214.14 387.887 213.096 388.266 212.021" stroke="white" stroke-width="5.94322" stroke-linecap="round"/>
<path d="M351.882 250.277C352.32 256.97 352.723 261.365 352.276 270.451C351.875 278.602 350.221 293.886 349.078 303.259C347.079 319.648 344.477 322.27 343.601 325.883C343.233 327.401 342.655 328.824 342.419 329.878C342.353 330.176 343.074 329.951 343.515 329.589C345.414 328.031 347.02 325.088 349.339 323.349C351.261 321.909 352.764 319.707 355.089 317.909C355.622 317.497 355.856 316.908 356.334 316.812C358.636 316.349 361.2 319.94 363.383 321.896C365.224 323.545 367.854 324.997 372.459 326.645C378.271 328.725 383.096 327.378 384.048 326.53C385.142 324.212 385.95 321.344 386.55 318.504C386.699 317.645 386.81 316.458 386.525 315.198" stroke="white" stroke-width="5.94322" stroke-linecap="round"/>
<path d="M374.421 233.438C375.504 240.522 376.075 242.986 377.5 252.831C378.325 258.523 379.381 262.247 380.145 265.525C382.622 276.162 382.302 279.851 383.323 283.306C384.164 286.152 384.787 289.218 385.337 291.963C386.217 296.358 386.686 300.555 387.197 302.955C387.33 303.707 387.376 304.643 387.441 305.394C387.505 306.146 387.588 306.686 388.072 307.28" stroke="white" stroke-width="5.94322" stroke-linecap="round"/>
<path d="M362.62 243.219C364.492 259.108 364.94 262.899 366.024 269.898C367.762 281.11 370.036 288.923 370.012 290.594C370.645 295.293 371.413 298.586 372.436 304.851C372.701 306.37 372.878 307.318 373.024 308.694" stroke="white" stroke-width="5.94322" stroke-linecap="round"/>
<path d="M268.818 137.775C269.945 137.88 270.962 138.746 271.661 140.204C272.356 141.654 272.699 143.624 272.498 145.768C272.298 147.912 271.596 149.785 270.644 151.081C269.686 152.384 268.526 153.046 267.399 152.941C266.272 152.835 265.255 151.969 264.556 150.511C263.861 149.062 263.518 147.091 263.718 144.947C263.919 142.803 264.622 140.93 265.574 139.635C266.531 138.332 267.69 137.669 268.818 137.775Z" fill="white" stroke="white" stroke-width="0.801662"/>
<path d="M327.234 141.629C328.361 141.735 329.379 142.601 330.078 144.059C330.773 145.509 331.115 147.479 330.915 149.623C330.714 151.767 330.012 153.64 329.06 154.935C328.103 156.238 326.942 156.901 325.815 156.796C324.688 156.69 323.672 155.824 322.973 154.366C322.277 152.916 321.934 150.946 322.135 148.802C322.335 146.658 323.038 144.785 323.99 143.49C324.947 142.187 326.107 141.524 327.234 141.629Z" fill="white" stroke="white" stroke-width="0.801662"/>
<path d="M263.206 139.592C263.36 139.843 263.514 140.095 263.919 140.551C264.323 141.007 264.973 141.66 265.355 142.12C265.738 142.579 265.833 142.825 265.932 143.078" stroke="white" stroke-width="4.80997" stroke-linecap="round"/>
<path d="M321.799 142.484C322.625 143.153 323.451 143.823 324.066 144.364C324.68 144.904 325.059 145.295 325.36 145.625C325.661 145.955 325.874 146.211 326.627 146.526" stroke="white" stroke-width="4.80997" stroke-linecap="round"/>
<path d="M407.149 140.865C407.543 146.343 408.007 151.23 408.233 156.157C408.53 162.619 406.989 168.312 405.616 172.636C404.002 177.719 402.06 181.826 401.291 184.555C400.483 186.488 399.298 189.348 398.011 192.718C397.485 194.005 397.218 194.434 396.879 195.556" stroke="white" stroke-width="5.94031" stroke-linecap="round"/>
<path d="M248.62 112.689C252.051 110.185 252.825 109.793 253.918 109.502C255.791 109.005 257.998 108.887 259.71 108.769C260.422 108.719 261.171 108.766 262.645 108.765C267.776 108.761 269.097 109.691 270.216 110.143C272.071 110.891 273.622 111.318 275.03 111.937C275.833 112.544 277.036 113.49 278.275 114.648C278.533 114.884 278.752 114.996 278.978 115.111" stroke="white" stroke-width="5.94031" stroke-linecap="round"/>
<path d="M311.195 116.596C311.468 116.622 313.446 116.119 317.182 115.219C319.064 114.766 320.982 114.601 324.919 114.756C328.855 114.912 334.767 115.465 337.922 115.806C342.239 116.273 344.348 117.287 345.4 117.479C347.021 117.954 349.254 118.808 350.765 119.301C351.146 119.451 351.58 119.721 352.164 120.012" stroke="white" stroke-width="5.94031" stroke-linecap="round"/>
<path d="M308.586 184.572C303.897 185.192 302.707 185.318 301.555 185.484C300.371 185.654 299.251 185.74 298.523 185.77C296.159 185.867 292.735 185.29 291.539 185.059C291.267 184.995 291.082 184.9 290.911 184.824C290.74 184.749 290.589 184.696 290.212 184.502" stroke="white" stroke-width="5.94031" stroke-linecap="round"/>
</svg>
