<svg width="46" height="44" viewBox="0 0 46 44" fill="none" xmlns="http://www.w3.org/2000/svg">
<path d="M19.1401 22.1878C22.4832 16.6955 27.3098 12.0751 32.8492 9.24214C36.6791 7.28344 39.6332 7.71529 41.3789 8.19288C42.2698 8.43661 42.7665 9.62566 42.9546 11.1326C43.1428 12.6396 42.904 14.6693 39.4378 18.3417C35.9716 22.0141 29.2853 27.2677 25.2439 30.3322C20.0084 34.1132 18.1813 35.3289 17.217 36.5301C16.8498 37.2537 16.7304 38.2089 16.6074 39.193" stroke="white" stroke-width="6" stroke-linecap="round"/>
<path d="M18.4168 21.826C16.9696 11.8291 16.7308 7.49094 15.7684 5.07041C15.5082 4.41597 14.929 3.74979 14.2053 3.38075C12.6741 2.59981 10.9454 3.13109 9.20505 4.02839C6.0238 5.66862 4.30973 8.78985 3.64761 11.015C2.1682 15.9868 3.33645 21.2037 6.041 25.2451C10.2109 30.9871 15.7177 35.5387 20.036 39.4246C20.5841 40.0324 20.9423 40.51 21.6731 41.0021" stroke="white" stroke-width="6" stroke-linecap="round"/>
</svg>
