<svg width="28" height="27" viewBox="0 0 28 27" fill="none" xmlns="http://www.w3.org/2000/svg">
<path d="M15.1724 12.2174C17.7334 6.77517 19.613 3.4914 20.7019 2.76383C21.5657 2.18672 22.8458 2.67652 23.896 3.0791C26.6833 4.14769 23.6704 11.4753 22.4517 13.5852C21.6311 15.006 20.5952 16.7332 19.0176 18.6782C18.6502 19.4058 18.1676 20.1358 17.5613 20.9422C17.3551 21.3484 17.3551 21.7486 17.3551 22.1609" stroke="#FFE55A" stroke-width="5" stroke-linecap="round"/>
<path d="M13.4747 13.9151C10.3244 9.39208 8.71644 7.29909 6.85265 6.15681C5.91898 5.58458 4.74876 5.66934 3.86111 5.74937C3.44757 5.78666 3.13355 5.98947 2.92862 6.35204C1.70453 8.51772 3.36151 11.8828 4.6578 14.0279C6.5154 17.1019 9.34214 19.0809 12.6538 21.0623C14.6825 22.4811 16.0576 23.2911 16.784 23.6537C17.1102 23.8562 17.3503 24.0963 17.5977 24.3436" stroke="#FFE55A" stroke-width="5" stroke-linecap="round"/>
</svg>
