<svg width="39" height="54" viewBox="0 0 39 54" fill="none" xmlns="http://www.w3.org/2000/svg">
<path d="M11.0113 2.50018C10.7466 4.98091 9.50361 9.78732 8.60942 12.9136C7.50016 16.7918 5.31737 17.7321 3.7549 18.6249C3.33552 18.8646 2.91151 19.2451 2.68429 19.6474C2.45707 20.0497 2.45707 20.4908 2.58939 20.8944C3.13272 22.5519 4.94314 23.4367 6.54973 25.0807C9.16555 27.7574 10.8242 31.0071 11.9429 32.7888C13.4145 34.8432 14.1282 35.7334 14.7484 36.6209C15.1922 37.1555 15.8979 37.8612 16.8923 38.5883" stroke="#FFE55A" stroke-width="5" stroke-linecap="round"/>
<path d="M12.6151 4.63873C13.1471 5.25624 13.6844 7.39212 14.2605 9.31015C14.807 11.1297 17.0633 12.915 18.2689 14.2141C18.5308 14.4963 18.9345 14.6151 19.0722 15.0589C19.8763 17.6507 17.1649 20.2235 16.1384 21.52C15.1596 22.7562 15.021 28.2056 15.553 31.765C16.1785 33.9503 16.7104 35.5516 16.9804 37.4669C17.0687 37.9601 17.2451 38.4012 17.6942 38.8556" stroke="#FFE55A" stroke-width="5" stroke-linecap="round"/>
<path d="M31.0464 31.342C31.0464 31.7881 31.1576 33.2411 31.0195 38.7567C30.9816 40.2706 30.6542 40.8242 30.4311 41.2165C30.3131 41.424 29.9858 41.4976 29.7871 41.6938C29.5884 41.8899 29.4773 42.1677 29.5034 42.4775C29.6183 43.8416 30.932 44.582 32.2755 46.8221C33.4557 48.7339 34.3565 50.0841 34.6359 50.5597C34.8043 50.8131 35.0265 51.0909 35.5922 51.7139" stroke="#FFE55A" stroke-width="3.00772" stroke-linecap="round"/>
<path d="M32.0567 30.5002C32.2234 31.6181 33.2285 34.5207 34.7724 37.366C36.0046 39.637 36.8247 40.3763 37.1615 40.7114C37.9979 41.5437 37.1076 43.2318 36.3811 44.9449C36.0974 46.3802 35.9863 47.2758 35.7893 48.8147C35.7607 49.569 35.7607 50.7913 35.9291 52.219" stroke="#FFE55A" stroke-width="3.00772" stroke-linecap="round"/>
</svg>
