<svg width="188" height="88" viewBox="0 0 188 88" fill="none" xmlns="http://www.w3.org/2000/svg">
<path d="M31.5874 17.3435C31.5044 17.5687 31.2872 18.0429 30.9356 18.7659C30.5932 19.4639 30.1705 20.3028 29.6674 21.2827C29.1644 22.2625 28.6304 23.2878 28.0655 24.3585C27.5348 25.4135 27.0179 26.4308 26.5148 27.4107C26.021 28.3655 25.6075 29.1794 25.2744 29.8524C25.1664 30.0684 24.9893 30.2021 24.743 30.2534C24.4875 30.3298 24.2485 30.2844 24.0259 30.1172C23.4714 29.7708 23.1165 29.3843 22.9611 28.9576C22.9295 28.8891 22.9446 28.8095 23.0065 28.7186C23.0684 28.6277 23.0835 28.548 23.0519 28.4796C23.0163 28.2675 22.9432 28.0417 22.8326 27.802C22.747 27.5715 22.7147 27.3891 22.7358 27.2548C22.7805 26.9018 22.9478 26.4093 23.2375 25.7771C23.5364 25.1199 23.8604 24.472 24.2093 23.8332C24.5925 23.1787 24.8783 22.6729 25.0666 22.316C25.8133 20.8291 26.4901 19.416 27.0972 18.0766C27.7293 16.7464 28.3364 15.4071 28.9184 14.0585C28.9737 13.9083 28.9322 13.7509 28.7939 13.5863C28.6899 13.4059 28.5444 13.3381 28.3574 13.3829C27.5158 13.5844 26.6269 13.9532 25.6905 14.4892C24.7884 15.0095 23.9272 15.5732 23.1067 16.1803C22.9513 16.2936 22.8394 16.366 22.7709 16.3977C22.7116 16.4042 22.601 16.4345 22.439 16.4885C22.1216 16.6558 21.714 16.8751 21.2162 17.1464C20.7276 17.3927 20.2358 17.6094 19.7406 17.7964C19.2546 17.9584 18.8569 17.9966 18.5474 17.911C18.3723 17.8465 18.1405 17.7043 17.852 17.4844C17.5636 17.2644 17.3582 17.0893 17.2357 16.9589C16.9183 16.5862 16.778 16.0799 16.8148 15.4398C16.8767 14.809 16.8484 14.2302 16.7298 13.7034C16.7008 13.5506 16.6844 13.4025 16.6804 13.2589C16.6765 13.1154 16.6725 12.9718 16.6685 12.8283C16.8226 11.9472 16.9378 11.0945 17.0141 10.27C17.1155 9.45482 17.1655 8.66331 17.1642 7.89552C17.1628 7.66768 17.0713 7.49187 16.8896 7.36808C16.7421 7.22849 16.5577 7.18899 16.3364 7.24958C15.7543 7.51826 15.2276 7.90679 14.7561 8.41517C14.3189 8.90773 13.8725 9.42532 13.4168 9.96793C12.9954 10.4947 12.5174 10.9438 11.9827 11.3153C11.8708 11.3877 11.7759 11.4522 11.6982 11.5089C11.6298 11.5405 11.5646 11.6017 11.5027 11.6926C10.3938 13.1597 9.2613 14.5755 8.10506 15.94C6.95803 17.2794 5.80179 18.6438 4.63633 20.0333C4.261 20.435 3.84419 20.6793 3.38589 20.7662C3.27658 20.7544 3.17517 20.7596 3.08167 20.782C2.99738 20.7794 2.89598 20.7847 2.77745 20.7978C2.28491 20.9006 1.81014 20.8394 1.35314 20.6142C1.34655 20.5549 1.30572 20.5115 1.23065 20.4838C1.01466 20.3758 0.863864 20.2066 0.778251 19.9761C0.701855 19.7207 0.717649 19.4849 0.825632 19.2689C1.77511 17.7715 2.74895 16.4393 3.74717 15.2724C4.7546 14.0805 5.74425 12.7826 6.71612 11.3787C6.76221 11.2536 6.85373 11.1594 6.9907 11.0962C7.92176 10.1888 8.85545 9.19704 9.79177 8.12103C10.7281 7.04502 11.6947 6.07964 12.6916 5.22489C13.7136 4.37935 14.7935 3.83934 15.9313 3.60487C16.2461 3.52189 16.5332 3.51398 16.7926 3.58113C17.405 3.69305 17.918 3.88201 18.3315 4.14802C18.7701 4.42325 19.181 4.77355 19.5642 5.19891C19.6775 5.35431 19.7737 5.51761 19.8527 5.68882C19.9659 5.84421 20.045 6.01542 20.0898 6.20243C20.5863 7.86311 20.6351 9.81354 20.2362 12.0537C20.1967 12.2381 20.2507 12.4001 20.3982 12.5397C20.5549 12.6543 20.7189 12.672 20.8901 12.593C21.4129 12.3309 21.9588 12.0062 22.5277 11.619C23.1216 11.241 23.7064 10.8881 24.2819 10.5601C25.8846 9.75801 27.4597 9.30095 29.0071 9.18895C29.4812 9.13625 30.089 9.26067 30.8305 9.56223C31.5812 9.83876 32.1712 10.3971 32.6006 11.2373C32.9285 11.8128 33.0352 12.4489 32.9207 13.1456C32.8311 13.8515 32.6402 14.5627 32.3479 15.2791C32.0806 16.0048 31.8271 16.6929 31.5874 17.3435ZM44.3215 17.3027C44.2609 17.6215 44.1127 17.9079 43.877 18.1621C43.6413 18.4163 43.4385 18.6968 43.2686 19.0037C42.7313 19.9993 42.1196 21.0812 41.4335 22.2494C40.7567 23.3926 40.0409 24.5641 39.2864 25.7638C38.566 26.9478 37.8641 28.0818 37.1807 29.1657C36.5064 30.2246 35.8908 31.1629 35.3337 31.9808C35.2192 32.1375 35.0743 32.1836 34.8991 32.1191C34.749 32.0638 34.6463 32.1112 34.591 32.2613C34.4711 32.5866 34.1992 32.7848 33.7751 32.856C33.4103 32.9205 33.1542 32.883 33.0067 32.7434C32.8592 32.6038 32.6972 32.3878 32.5207 32.0955C32.2336 31.5634 32.2164 31.0314 32.4693 30.4993C33.079 29.0756 33.8678 27.5901 34.8357 26.0426C35.8036 24.4951 36.7873 22.9819 37.7868 21.5028C38.7956 19.9988 39.6272 18.6285 40.2816 17.3918C40.4147 17.185 40.6392 16.8841 40.9552 16.489C41.2713 16.0939 41.5874 15.6988 41.9034 15.3037C42.2445 14.9178 42.4736 14.6043 42.5908 14.3633C42.7884 13.9814 43.0873 13.8642 43.4877 14.0117C43.838 14.1407 44.1251 14.4028 44.349 14.7979C44.4978 15.1653 44.5624 15.5301 44.5426 15.8923C44.5321 16.2294 44.4584 16.6996 44.3215 17.3027ZM48.4291 32.0731C48.1802 32.7487 47.8384 33.2906 47.4039 33.6989C46.9943 34.1164 46.513 34.5359 45.9599 34.9574C45.7952 35.0956 45.5931 35.2201 45.3534 35.3307C45.1229 35.4164 44.8984 35.4473 44.6798 35.4236C43.8527 35.4316 43.0415 35.4737 42.246 35.5502C41.4756 35.6358 40.6169 35.5752 39.67 35.3685C39.1511 35.2342 38.7218 34.934 38.382 34.4678C38.2937 34.3216 38.1884 34.1833 38.0659 34.0529C37.9526 33.8975 37.8393 33.7421 37.7261 33.5867C37.5562 33.3536 37.5344 33.1041 37.6609 32.838C37.7873 32.572 37.994 32.435 38.2811 32.4271C38.8303 32.4021 39.4407 32.4422 40.1124 32.5475C40.8183 32.6371 41.4313 32.5929 41.9515 32.4151C42.045 32.3927 42.1353 32.3407 42.2222 32.259C42.3091 32.1774 42.4164 32.1175 42.5442 32.0793C42.6377 32.0569 42.7516 32.0562 42.8859 32.0773C43.0453 32.1075 43.1421 32.1148 43.1763 32.099C43.279 32.0516 43.4733 31.91 43.7591 31.6742C44.0791 31.4227 44.4004 31.129 44.723 30.7931C45.0457 30.4573 45.2966 30.1234 45.4757 29.7916C45.689 29.4439 45.7278 29.1456 45.5922 28.8967C45.5513 28.8532 45.4776 28.7834 45.3709 28.6873C45.2734 28.5661 45.1635 28.4403 45.041 28.31C44.7144 27.9623 44.3153 27.7727 43.8438 27.7411C43.5844 27.6739 43.3203 27.6193 43.0517 27.5772C42.783 27.535 42.5611 27.4817 42.3859 27.4172C42.3043 27.3303 42.2523 27.2401 42.2299 27.1465C42.2075 27.053 42.1383 26.9707 42.0224 26.8996C41.9316 26.8377 41.8315 26.8009 41.7222 26.789C41.6471 26.7614 41.572 26.7337 41.4969 26.7061C41.2375 26.6389 41.0742 26.4651 41.007 26.1845C40.9398 25.904 40.9978 25.6696 41.1808 25.4813C41.3178 25.4181 41.4172 25.341 41.4791 25.2501C41.9176 24.9854 42.3898 24.8609 42.8955 24.8767C43.6949 24.9438 44.4173 25.1815 45.0626 25.5898C45.7422 25.9822 46.3408 26.4016 46.8583 26.8481C47.0967 27.0495 47.287 27.3044 47.4293 27.6125C47.4293 27.6125 47.4372 27.6297 47.453 27.6639C47.478 27.6731 47.4984 27.6948 47.5142 27.7291C47.5617 27.8318 47.5966 27.9299 47.6189 28.0234C47.6756 28.1011 47.7447 28.1834 47.8264 28.2703C48.0937 28.6246 48.2663 29.0434 48.344 29.5267C48.4217 30.01 48.4823 30.5013 48.5258 31.0004C48.5904 31.3652 48.5581 31.7228 48.4291 32.0731ZM65.3126 42.3422C65.1954 42.5832 65.017 42.759 64.7773 42.8696C64.5376 42.9803 64.2848 42.9724 64.0187 42.846C63.4867 42.5931 63.0086 42.2323 62.5845 41.7635C62.1854 41.3039 61.8832 40.8515 61.6777 40.4064C61.6237 40.2444 61.517 40.1482 61.3577 40.118C61.2233 40.0969 61.091 40.1476 60.9606 40.2701C60.8895 40.386 60.7183 40.465 60.447 40.5072C60.3193 40.5454 60.1869 40.5961 60.0499 40.6593C59.9472 40.7067 59.8274 40.762 59.6904 40.8252C59.4415 40.9609 59.1768 41.0623 58.8963 41.1295C58.6408 41.2059 58.3794 41.3369 58.112 41.5227C57.6208 41.8532 57.0908 41.9422 56.5218 41.7894C56.0688 41.7078 55.6217 41.5715 55.1805 41.3805C54.7393 41.1896 54.3369 40.9703 53.9734 40.7228C53.6508 40.5186 53.3854 40.2362 53.1773 39.8753C53.1457 39.8068 53.1141 39.7384 53.0824 39.6699C53.0508 39.6014 53.0021 39.5408 52.9363 39.4881C52.6847 39.1681 52.5187 38.8086 52.4384 38.4096C52.3251 37.7142 52.2632 36.9951 52.2526 36.2524C52.2513 35.4846 52.4764 34.7576 52.9281 34.0714C53.2652 33.542 53.7038 33.0073 54.2437 32.4673C54.8179 31.9115 55.3256 31.4591 55.7667 31.1101C56.6741 30.4213 57.6954 30.0018 58.8306 29.8516C59.9751 29.6764 61.0734 29.8963 62.1257 30.5113C63.0121 31.0367 63.718 31.6662 64.2435 32.3997C64.794 33.1425 65.1891 33.9985 65.4289 34.9678C65.4895 35.189 65.45 35.3734 65.3104 35.5209C65.1958 35.6776 65.0292 35.7441 64.8106 35.7204C64.3826 35.648 64.0724 35.4485 63.8801 35.1219C63.4666 34.316 62.8219 33.7517 61.9461 33.429C61.0703 33.1064 60.1958 33.0116 59.3226 33.1447C59.2041 33.1579 59.0981 33.1756 59.0046 33.198C58.9361 33.2296 58.863 33.2738 58.7853 33.3304C58.3837 33.495 57.9464 33.7176 57.4737 33.9982C57.0259 34.2879 56.5821 34.7212 56.1422 35.2981C55.9223 35.5865 55.6636 35.9032 55.3659 36.2483C55.0933 36.6026 54.905 36.9595 54.801 37.319C54.7088 37.5692 54.7306 37.8188 54.8662 38.0677C55.0111 38.2916 55.2133 38.4371 55.4727 38.5043C56.3696 38.6926 57.1716 38.6754 57.8788 38.4528C58.5952 38.2052 59.2754 37.9016 59.9194 37.542C60.5884 37.1917 61.2765 36.9052 61.9837 36.6826C62.2643 36.6154 62.5375 36.6451 62.8036 36.7715C63.0696 36.8979 63.2533 37.0935 63.3547 37.3582C63.5312 37.6505 63.6129 38.0074 63.5997 38.4289C63.5866 38.8503 63.5563 39.2796 63.5089 39.7169C63.4918 39.9947 63.5511 40.2581 63.6867 40.507C63.8566 40.7401 64.0838 40.8949 64.3683 40.9712L64.7436 41.1095C65.0281 41.1859 65.2257 41.3439 65.3363 41.5836C65.4469 41.8233 65.439 42.0761 65.3126 42.3422ZM80.6549 31.2838C80.593 31.3747 80.5311 31.4656 80.4692 31.5564C80.4073 31.6473 80.358 31.7428 80.3211 31.8429C80.1894 32.2775 79.9616 32.8188 79.6377 33.4667C79.3387 34.1239 78.9884 34.8048 78.5868 35.5094C78.2102 36.2232 77.8395 36.8824 77.4747 37.4869C77.1191 38.0664 76.8314 38.5003 76.6115 38.7887C76.3823 39.1022 76.1723 39.4795 75.9813 39.9207C75.8246 40.3461 75.635 40.7452 75.4125 41.1179C75.1096 41.6315 74.7784 42.1063 74.4189 42.5422C74.0844 42.9874 73.7841 43.4167 73.5181 43.8303C73.3456 44.2214 73.1777 44.6 73.0144 44.9662C72.8762 45.3415 72.6971 45.6734 72.4771 45.9618C72.0808 46.4978 71.5856 46.6849 70.9916 46.5229C70.6979 46.4716 70.4536 46.3247 70.2587 46.0824C70.0546 45.8651 69.936 45.6083 69.9031 45.312C69.8899 45.1935 69.8721 45.0875 69.8497 44.994C69.8616 44.8846 69.8609 44.7707 69.8477 44.6522C69.8201 44.1873 69.9017 43.7343 70.0926 43.2931C70.5312 42.4884 71.0533 41.5724 71.6591 40.5451C72.2899 39.5271 72.9345 38.4715 73.5929 37.3784C74.2764 36.2945 74.9164 35.2514 75.5129 34.2492C76.1437 33.2311 76.6863 32.3369 77.1406 31.5664C77.5422 30.8619 77.9143 30.1605 78.2566 29.4625C78.599 28.7645 79.0329 28.2423 79.5584 27.8959C79.8257 27.7102 80.097 27.6681 80.3723 27.7695C80.6568 27.8459 80.8497 28.0164 80.9511 28.2811C80.9893 28.4088 81.0196 28.5195 81.042 28.613C81.0894 28.7157 81.121 28.7842 81.1368 28.8184C81.2356 29.1674 81.2179 29.6014 81.0835 30.1202C80.9743 30.6484 80.8314 31.0362 80.6549 31.2838ZM84.9321 39.8077C84.8676 39.9829 84.566 40.1844 84.0274 40.4123C83.5138 40.6493 82.8929 40.9463 82.1646 41.3033C81.4363 41.6602 80.7383 42.1278 80.0707 42.7059C79.428 43.2933 78.9579 44.0295 78.6603 44.9146C78.5102 45.3992 78.4397 45.899 78.449 46.4139C78.4674 46.9039 78.4358 47.3753 78.3542 47.8284C78.3029 48.1221 78.1481 48.3492 77.89 48.5099C77.6411 48.6456 77.3836 48.6502 77.1176 48.5238C76.8173 48.4132 76.5572 48.2321 76.3373 47.9806C76.1516 47.7132 75.9784 47.4505 75.8177 47.1924C75.6122 46.7473 75.5128 46.2843 75.5193 45.8037C75.6365 45.0227 75.7662 44.2463 75.9084 43.4746C76.0598 42.6778 76.3317 41.9396 76.7242 41.26C77.1258 40.5554 77.7138 39.9621 78.4882 39.4801C78.7898 39.2786 79.1071 39.1113 79.4403 38.9783C79.7985 38.8545 80.1489 38.7135 80.4913 38.5555C80.7744 38.404 81.0839 38.2196 81.4197 38.0023C81.7805 37.7942 82.1605 37.65 82.5595 37.5696C83.114 37.376 83.6078 37.5011 84.0411 37.9449C84.3177 38.2741 84.5614 38.577 84.7721 38.8536C84.992 39.1051 85.0454 39.4232 84.9321 39.8077ZM113.458 43.1971C113.509 43.4434 113.439 43.6732 113.247 43.8865C113.089 44.0841 112.866 44.1868 112.579 44.1947C112.242 44.1842 111.873 44.1052 111.473 43.9577C111.097 43.8195 110.667 43.6753 110.183 43.5252C109.907 43.4238 109.626 43.377 109.339 43.3849C109.052 43.3928 108.804 43.3724 108.594 43.3237C108.11 43.1736 107.758 42.9728 107.538 42.7212C107.318 42.4697 106.975 42.3578 106.51 42.3855C106.383 42.4237 106.216 42.4902 106.011 42.585C105.839 42.664 105.673 42.7305 105.511 42.7845C105.112 42.8649 104.802 43.0493 104.582 43.3377C104.3 43.717 104.264 44.0871 104.472 44.4479C104.589 44.7469 104.711 45.0333 104.837 45.3072C104.989 45.5904 105.111 45.8768 105.203 46.1665C105.279 46.422 105.413 46.5992 105.604 46.6979C105.704 46.7348 105.818 46.8481 105.947 47.0377C106.203 47.5013 106.484 47.974 106.789 48.456C107.095 48.938 107.303 49.4128 107.415 49.8803C107.447 49.9488 107.469 50.0423 107.483 50.1608C107.53 50.2636 107.582 50.3538 107.639 50.4315C107.989 51.1005 108.104 51.8676 107.984 52.7329C107.89 53.6073 107.59 54.4206 107.086 55.1726C106.591 55.8996 105.912 56.431 105.049 56.7669C104.707 56.9249 104.347 57.0909 103.97 57.2647C103.603 57.4136 103.196 57.4768 102.75 57.4544C102.715 57.4702 102.665 57.4518 102.6 57.3991C102.534 57.3464 102.476 57.3109 102.426 57.2925C101.888 57.2082 101.35 57.1661 100.81 57.1661C100.27 57.1661 99.6916 57.0384 99.0753 56.7829C98.8 56.6815 98.534 56.5551 98.2772 56.4037C98.0204 56.2522 97.751 56.0962 97.4692 55.9355C97.053 55.7538 96.7501 55.4575 96.5605 55.0466C96.5539 54.9873 96.5381 54.9531 96.513 54.9439C96.488 54.9347 96.4676 54.9129 96.4518 54.8787C96.3227 54.6891 96.2233 54.4961 96.1535 54.2999C96.1087 54.1129 96.081 53.918 96.0705 53.7152C96.0942 53.4965 96.0882 53.2812 96.0527 53.0692C96.0263 52.8321 96.0421 52.5964 96.1001 52.362C96.1672 52.1025 96.3193 51.9596 96.5564 51.9333C96.8184 51.9161 97.014 52.0024 97.1431 52.192C97.3354 52.5186 97.5817 52.7372 97.8819 52.8479C98.8526 53.3759 99.7797 53.6748 100.663 53.7446C101.581 53.7986 102.475 53.6872 103.344 53.4106C103.634 53.3184 103.914 53.1373 104.184 52.8673C104.271 52.7857 104.348 52.7291 104.417 52.6974C104.494 52.6408 104.56 52.5796 104.612 52.5137C104.87 52.353 105.071 52.1568 105.213 51.925C105.513 51.4957 105.557 51.0288 105.345 50.5244C105.054 49.8488 104.66 49.2206 104.164 48.6399C103.667 48.0591 103.163 47.4612 102.65 46.8462C102.456 46.6039 102.313 46.2957 102.224 45.9217C102.147 45.6662 102.071 45.4107 101.995 45.1552C101.952 44.884 101.885 44.6034 101.793 44.3137C101.635 43.9713 101.578 43.6236 101.623 43.2707C101.74 42.4897 101.881 41.7601 102.046 41.0818C102.235 40.4128 102.599 39.8505 103.136 39.3948C103.415 39.0997 103.824 38.8383 104.363 38.6105C104.936 38.3668 105.412 38.2298 105.793 38.1995C106.192 38.1191 106.773 38.1626 107.535 38.3298C108.332 38.4812 109.131 38.7044 109.932 38.9994C110.757 39.3036 111.392 39.6651 111.834 40.0838C111.997 40.2577 112.156 40.444 112.31 40.6429C112.464 40.8417 112.61 41.0235 112.749 41.1881C113.085 41.5107 113.29 41.9558 113.365 42.5235C113.353 42.6328 113.354 42.7467 113.367 42.8652C113.415 42.9679 113.445 43.0786 113.458 43.1971ZM126.269 64.7969C126.152 65.038 125.974 65.2138 125.734 65.3244C125.494 65.435 125.241 65.4272 124.975 65.3007C124.443 65.0479 123.965 64.6871 123.541 64.2182C123.142 63.7586 122.84 63.3063 122.634 62.8611C122.58 62.6992 122.474 62.603 122.314 62.5727C122.18 62.5517 122.048 62.6024 121.917 62.7249C121.846 62.8408 121.675 62.9198 121.404 62.9619C121.276 63.0001 121.143 63.0509 121.007 63.1141C120.904 63.1615 120.784 63.2168 120.647 63.28C120.398 63.4157 120.133 63.5171 119.853 63.5843C119.597 63.6607 119.336 63.7917 119.069 63.9774C118.577 64.308 118.047 64.3969 117.478 64.2442C117.025 64.1626 116.578 64.0263 116.137 63.8353C115.696 63.6444 115.294 63.4251 114.93 63.1775C114.607 62.9734 114.342 62.6909 114.134 62.3301C114.102 62.2616 114.071 62.1931 114.039 62.1247C114.007 62.0562 113.959 61.9956 113.893 61.9429C113.641 61.6229 113.475 61.2634 113.395 60.8643C113.282 60.169 113.22 59.4499 113.209 58.7072C113.208 57.9394 113.433 57.2124 113.885 56.5262C114.222 55.9968 114.66 55.4621 115.2 54.9221C115.774 54.3663 116.282 53.9139 116.723 53.5649C117.631 52.8761 118.652 52.4566 119.787 52.3064C120.932 52.1312 122.03 52.3511 123.082 52.9661C123.969 53.4915 124.675 54.121 125.2 54.8545C125.751 55.5973 126.146 56.4533 126.385 57.4225C126.446 57.6438 126.407 57.8282 126.267 57.9757C126.152 58.1324 125.986 58.1989 125.767 58.1752C125.339 58.1028 125.029 57.9033 124.837 57.5767C124.423 56.7707 123.778 56.2064 122.903 55.8838C122.027 55.5612 121.152 55.4664 120.279 55.5995C120.161 55.6126 120.055 55.6304 119.961 55.6528C119.893 55.6844 119.82 55.7285 119.742 55.7852C119.34 55.9498 118.903 56.1724 118.43 56.4529C117.982 56.7427 117.539 57.176 117.099 57.7528C116.879 58.0413 116.62 58.358 116.323 58.7031C116.05 59.0573 115.862 59.4143 115.758 59.7738C115.665 60.024 115.687 60.2736 115.823 60.5225C115.968 60.7464 116.17 60.8919 116.429 60.959C117.326 61.1473 118.128 61.1302 118.835 60.9076C119.552 60.66 120.232 60.3564 120.876 59.9968C121.545 59.6465 122.233 59.36 122.94 59.1374C123.221 59.0702 123.494 59.0998 123.76 59.2263C124.026 59.3527 124.21 59.5482 124.311 59.8129C124.488 60.1053 124.569 60.4622 124.556 60.8836C124.543 61.3051 124.513 61.7344 124.466 62.1716C124.448 62.4495 124.508 62.7129 124.643 62.9618C124.813 63.1949 125.04 63.3496 125.325 63.426L125.7 63.5643C125.985 63.6407 126.182 63.7987 126.293 64.0384C126.404 64.2781 126.396 64.5309 126.269 64.7969ZM142.042 54.5367C141.464 55.4888 140.759 56.5932 139.927 57.8496C139.094 59.106 138.253 60.3875 137.402 61.6939C136.551 63.0004 135.753 64.241 135.008 65.4158C134.297 66.5748 133.744 67.5362 133.349 68.3C133.195 68.6411 132.928 68.9408 132.549 69.1989C132.16 69.4821 131.789 69.4874 131.435 69.2148C131.344 69.1529 131.27 69.0831 131.213 69.0054C131.147 68.9527 131.069 68.8954 130.978 68.8335C130.567 68.4832 130.384 68.0177 130.427 67.4369C130.42 67.3776 130.418 67.3059 130.421 67.2216C130.449 67.1465 130.451 67.0622 130.429 66.9687C130.401 66.5038 130.542 66.0442 130.852 65.5898C131.489 64.631 132.242 63.4734 133.111 62.1169C133.981 60.7603 134.881 59.3584 135.812 57.911C136.752 56.4386 137.652 55.0366 138.512 53.7051C139.397 52.3829 140.166 51.2594 140.819 50.3349C140.977 50.1374 141.181 49.9707 141.43 49.8351C141.679 49.6994 141.933 49.6652 142.192 49.7323C143.123 49.9048 143.597 50.3921 143.615 51.1941C143.666 51.9803 143.142 53.0945 142.042 54.5367ZM164.356 73.7117C164.314 73.9803 164.151 74.4604 163.868 75.1518C163.585 75.8432 163.263 76.563 162.902 77.311C162.541 78.0591 162.219 78.6649 161.934 79.1285C161.863 79.2444 161.771 79.3386 161.659 79.411C161.548 79.4834 161.428 79.5388 161.3 79.5769C161.069 79.6626 160.826 79.6296 160.569 79.4782C159.837 79.1516 159.443 78.7934 159.388 78.4036L159.429 78.291C159.428 78.0632 159.511 77.6819 159.68 77.1472C159.883 76.5967 160.099 76.0087 160.33 75.3831C160.57 74.7325 160.756 74.1478 160.891 73.6289C161.059 73.0942 161.087 72.7491 160.974 72.5937C160.847 72.3198 160.656 71.951 160.401 71.4875C160.145 71.0239 159.711 70.7362 159.099 70.6243C158.58 70.49 158.005 70.5479 157.372 70.7982C156.749 71.0234 156.194 71.3731 155.707 71.8472C155.403 72.133 155.113 72.4952 154.838 72.9338C154.597 73.3565 154.33 73.8122 154.036 74.3008C153.761 74.7394 153.457 75.1391 153.125 75.4999C152.793 75.8608 152.392 76.0254 151.92 75.9939C151.617 75.9675 151.361 75.93 151.152 75.8813C150.967 75.8418 150.807 75.6976 150.672 75.4487C150.498 75.072 150.474 74.6368 150.599 74.1429C150.733 73.624 150.927 73.0985 151.179 72.5665C151.441 72.0094 151.669 71.4681 151.863 70.9426C152.091 70.4013 152.164 69.9312 152.084 69.5321C152.037 68.8894 151.814 68.4522 151.416 68.2205C151.044 67.9979 150.629 67.8879 150.174 67.8906C149.743 67.9025 149.378 67.967 149.079 68.0842C148.397 68.3161 147.851 68.6407 147.442 69.0582C147.041 69.4507 146.547 69.8656 145.96 70.3028C145.727 70.4727 145.427 70.746 145.061 71.1227C144.695 71.4993 144.326 71.8464 143.953 72.1638C143.605 72.4904 143.288 72.6577 143.001 72.6656C142.764 72.6919 142.497 72.6077 142.199 72.4128C141.901 72.2179 141.671 72.0335 141.508 71.8597C141.306 71.5581 141.263 71.1729 141.379 70.704C141.495 70.2352 141.692 69.7393 141.97 69.2165C142.257 68.6686 142.56 68.155 142.878 67.6756C143.222 67.2054 143.496 66.809 143.7 66.4863C144.223 65.6843 144.759 64.8447 145.31 63.9675C145.895 63.0746 146.478 62.2238 147.06 61.4152C147.193 61.2084 147.383 61.0793 147.629 61.028C147.9 60.9858 148.122 61.0391 148.295 61.1879C148.758 61.4724 149.104 61.8839 149.332 62.4226C149.594 62.9454 149.551 63.6401 149.204 64.5067C149.148 64.6568 149.169 64.7925 149.267 64.9136C149.389 65.044 149.519 65.0776 149.656 65.0144C150.646 64.6403 151.604 64.6238 152.53 64.9648C153.481 65.3151 154.113 65.8748 154.427 66.6439C154.587 66.902 154.694 67.1542 154.745 67.4005C154.83 67.631 154.896 67.8397 154.94 68.0267C154.96 68.2045 155.053 68.3382 155.219 68.4277C155.41 68.5265 155.596 68.5238 155.776 68.4198C156.747 67.8679 157.782 67.6809 158.882 67.8586C159.99 68.0113 160.986 68.2787 161.868 68.6605C161.984 68.7316 162.075 68.7935 162.141 68.8462C162.241 68.8831 162.337 68.9325 162.428 68.9944C163.249 69.695 163.822 70.4173 164.144 71.1614C164.501 71.8896 164.572 72.7397 164.356 73.7117ZM180.885 84.9158C180.767 85.1568 180.589 85.3326 180.349 85.4432C180.11 85.5539 179.857 85.546 179.591 85.4196C179.059 85.1667 178.581 84.8059 178.156 84.3371C177.757 83.8775 177.455 83.4251 177.25 82.98C177.196 82.818 177.089 82.7219 176.93 82.6916C176.795 82.6705 176.663 82.7212 176.533 82.8437C176.461 82.9596 176.29 83.0386 176.019 83.0808C175.891 83.119 175.759 83.1697 175.622 83.2329C175.519 83.2803 175.399 83.3356 175.262 83.3989C175.013 83.5345 174.749 83.6359 174.468 83.7031C174.213 83.7795 173.951 83.9106 173.684 84.0963C173.193 84.4268 172.663 84.5158 172.094 84.363C171.641 84.2814 171.194 84.1451 170.752 83.9542C170.311 83.7632 169.909 83.544 169.545 83.2964C169.223 83.0923 168.957 82.8098 168.749 82.4489C168.718 82.3805 168.686 82.312 168.654 82.2435C168.623 82.175 168.574 82.1144 168.508 82.0618C168.257 81.7417 168.091 81.3822 168.01 80.9832C167.897 80.2878 167.835 79.5688 167.825 78.826C167.823 78.0582 168.048 77.3312 168.5 76.645C168.837 76.1156 169.276 75.5809 169.816 75.0409C170.39 74.4851 170.898 74.0327 171.339 73.6837C172.246 72.9949 173.267 72.5754 174.403 72.4252C175.547 72.25 176.645 72.4699 177.698 73.0849C178.584 73.6103 179.29 74.2398 179.815 74.9733C180.366 75.7161 180.761 76.5721 181.001 77.5414C181.061 77.7626 181.022 77.947 180.882 78.0945C180.768 78.2512 180.601 78.3178 180.383 78.2941C179.955 78.2216 179.644 78.0221 179.452 77.6955C179.038 76.8896 178.394 76.3253 177.518 76.0026C176.642 75.68 175.768 75.5852 174.895 75.7183C174.776 75.7315 174.67 75.7492 174.577 75.7716C174.508 75.8033 174.435 75.8474 174.357 75.904C173.956 76.0686 173.518 76.2912 173.046 76.5718C172.598 76.8615 172.154 77.2948 171.714 77.8717C171.494 78.1601 171.235 78.4768 170.938 78.8219C170.665 79.1762 170.477 79.5331 170.373 79.8926C170.281 80.1429 170.303 80.3924 170.438 80.6413C170.583 80.8652 170.785 81.0107 171.045 81.0779C171.942 81.2662 172.744 81.249 173.451 81.0264C174.167 80.7788 174.847 80.4752 175.491 80.1156C176.16 79.7653 176.848 79.4788 177.556 79.2562C177.836 79.189 178.109 79.2187 178.376 79.3451C178.642 79.4715 178.825 79.6671 178.927 79.9318C179.103 80.2241 179.185 80.581 179.172 81.0025C179.159 81.4239 179.128 81.8532 179.081 82.2905C179.064 82.5683 179.123 82.8317 179.259 83.0806C179.429 83.3137 179.656 83.4685 179.94 83.5448L180.316 83.6831C180.6 83.7595 180.798 83.9175 180.908 84.1572C181.019 84.3969 181.011 84.6497 180.885 84.9158Z" fill="white"/>
</svg>
