<svg width="140" height="65" viewBox="0 0 140 65" fill="none" xmlns="http://www.w3.org/2000/svg">
<path d="M29.3399 36.5033C29.4036 36.7347 29.5032 37.2466 29.6385 38.0391C29.7667 38.8059 29.9118 39.7341 30.0736 40.8236C30.2354 41.9131 30.3985 43.0575 30.563 44.2569C30.7461 45.4235 30.9185 46.5515 31.0803 47.641C31.2351 48.7048 31.373 49.6072 31.4942 50.3483C31.5322 50.5868 31.4661 50.7986 31.2958 50.9838C31.1327 51.1947 30.9119 51.297 30.6336 51.2907C29.9811 51.3322 29.4675 51.2247 29.0926 50.9684C29.027 50.9312 28.9929 50.8576 28.9903 50.7476C28.9877 50.6377 28.9536 50.5641 28.888 50.5269C28.7356 50.3753 28.5446 50.2342 28.3151 50.1039C28.1113 49.9664 27.9788 49.8369 27.9177 49.7155C27.7485 49.4025 27.5975 48.9047 27.4648 48.2221C27.325 47.5138 27.2109 46.7984 27.1225 46.0759C27.0528 45.3207 26.9905 44.7431 26.9357 44.3433C26.6766 42.6998 26.4037 41.1569 26.117 39.7145C25.856 38.2651 25.5693 36.8228 25.2569 35.3876C25.2145 35.2333 25.0891 35.1295 24.8808 35.0763C24.6911 34.9902 24.5333 35.0199 24.4074 35.1652C23.8407 35.8192 23.3329 36.6367 22.884 37.6178C22.4538 38.5662 22.082 39.526 21.7688 40.4974C21.7084 40.68 21.6596 40.8041 21.6224 40.8697C21.578 40.9096 21.5057 40.9986 21.4055 41.1369C21.245 41.4577 21.0414 41.8734 20.7948 42.3839C20.5411 42.8686 20.2674 43.3313 19.9739 43.7717C19.6732 44.1864 19.3722 44.4492 19.0708 44.5599C18.8908 44.6094 18.6195 44.6288 18.257 44.6181C17.8944 44.6073 17.6254 44.5846 17.4499 44.55C16.9748 44.4319 16.5659 44.102 16.223 43.5603C15.9059 43.0114 15.5457 42.5575 15.1425 42.1983C15.03 42.091 14.9303 41.9802 14.8435 41.8658C14.7566 41.7514 14.6698 41.637 14.583 41.5226C14.195 40.7167 13.792 39.9565 13.3738 39.2419C12.9814 38.5202 12.561 37.8477 12.1127 37.2243C11.979 37.0399 11.8021 36.9503 11.5823 36.9555C11.3811 36.928 11.2082 37.0033 11.0637 37.1814C10.747 37.7388 10.5451 38.3615 10.458 39.0493C10.3895 39.7044 10.3281 40.3851 10.2738 41.0916C10.2381 41.7653 10.1111 42.4088 9.89277 43.0221C9.84398 43.1462 9.80449 43.2539 9.77432 43.3452C9.73706 43.4107 9.71975 43.4985 9.72237 43.6084C9.6756 45.4469 9.57965 47.2574 9.43452 49.0399C9.2823 50.7968 9.13716 52.5793 8.9991 54.3876C8.92799 54.9327 8.73149 55.3741 8.40959 55.7117C8.31383 55.7657 8.23448 55.8291 8.17151 55.9017C8.10147 55.9487 8.02211 56.0121 7.93344 56.0918C7.59291 56.4622 7.17133 56.689 6.6687 56.7721C6.62882 56.7278 6.57032 56.7162 6.4932 56.7375C6.25473 56.7755 6.03359 56.7258 5.82976 56.5883C5.61885 56.4251 5.49438 56.2243 5.45635 55.9859C5.35594 54.2156 5.37161 52.5655 5.50336 51.0356C5.62802 49.48 5.67649 47.8485 5.64874 46.1412C5.61333 46.0127 5.63288 45.8828 5.70739 45.7517C5.93567 44.4717 6.11699 43.1218 6.25136 41.7018C6.38573 40.2818 6.60915 38.934 6.92164 37.6586C7.25984 36.376 7.82311 35.3081 8.61146 34.4547C8.81897 34.2039 9.04774 34.0303 9.29774 33.9338C9.86072 33.668 10.3878 33.5229 10.8789 33.4982C11.3957 33.4665 11.9337 33.5119 12.493 33.6344C12.6756 33.6948 12.8488 33.7715 13.0128 33.8646C13.1954 33.925 13.3593 34.0181 13.5047 34.144C14.8756 35.2047 16.0513 36.7617 17.0318 38.815C17.1071 38.9879 17.2454 39.0881 17.4466 39.1157C17.6407 39.1175 17.7843 39.0365 17.8775 38.8725C18.1498 38.355 18.4044 37.7731 18.6413 37.127C18.9039 36.4738 19.1737 35.8463 19.4504 35.2445C20.286 33.659 21.3001 32.37 22.4927 31.3777C22.8474 31.0587 23.414 30.8058 24.1923 30.6191C24.9636 30.4066 25.7684 30.5168 26.6068 30.9497C27.2086 31.2265 27.6658 31.6814 27.9785 32.3144C28.3169 32.9404 28.5759 33.6296 28.7556 34.3823C28.961 35.1279 29.1557 35.8349 29.3399 36.5033ZM51.7314 42.5746C51.7765 42.8388 51.7339 43.0857 51.6035 43.3152C51.4731 43.5447 51.2629 43.6856 50.9731 43.7378C50.3933 43.8422 49.7945 43.8273 49.1767 43.6933C48.5846 43.5521 48.0755 43.3604 47.6492 43.1183C47.5109 43.0181 47.3682 43.0021 47.221 43.0703C47.0996 43.1314 47.0215 43.2497 46.9869 43.4252C46.9966 43.5608 46.9035 43.7248 46.7075 43.9171C46.6259 44.0225 46.5479 44.1408 46.4733 44.272C46.4175 44.3704 46.3523 44.4851 46.2778 44.6163C46.1545 44.8715 45.9984 45.1082 45.8095 45.3262C45.6463 45.5371 45.5101 45.7959 45.401 46.1025C45.1942 46.6574 44.8152 47.0384 44.2637 47.2456C43.8479 47.4431 43.4051 47.5928 42.9352 47.6945C42.4654 47.7963 42.0106 47.8524 41.571 47.8629C41.1898 47.8849 40.8095 47.8099 40.4302 47.6378C40.3646 47.6005 40.2991 47.5633 40.2335 47.526C40.1679 47.4888 40.093 47.4679 40.0088 47.4634C39.6179 47.3498 39.2736 47.1543 38.9759 46.8767C38.4788 46.3775 38.0096 45.829 37.5684 45.2314C37.1201 44.6081 36.8797 43.886 36.8472 43.0652C36.8128 42.4384 36.8578 41.7484 36.9822 40.995C37.1252 40.2087 37.2744 39.5453 37.4297 39.0046C37.766 37.9162 38.3519 36.9804 39.1872 36.1971C40.0154 35.3881 41.0363 34.927 42.2499 34.814C43.2764 34.7249 44.2168 34.8254 45.0712 35.1155C45.9514 35.3986 46.7711 35.8643 47.5306 36.5126C47.7087 36.6571 47.784 36.83 47.7564 37.0312C47.7546 37.2253 47.6579 37.3764 47.4664 37.4845C47.0763 37.675 46.708 37.6934 46.3615 37.54C45.5558 37.1257 44.7031 37.0425 43.8033 37.2904C42.9035 37.5383 42.1375 37.9706 41.5052 38.5873C41.4165 38.667 41.3407 38.7432 41.2778 38.8159C41.2405 38.8815 41.2068 38.9599 41.1766 39.0512C40.946 39.419 40.7203 39.8546 40.4993 40.358C40.3042 40.8543 40.1958 41.465 40.1742 42.1901C40.1635 42.5527 40.1376 42.9609 40.0967 43.4147C40.0815 43.8615 40.1363 44.2613 40.2611 44.6141C40.3319 44.8712 40.495 45.0614 40.7502 45.1847C40.9984 45.2823 41.2475 45.2828 41.4975 45.1863C42.3362 44.817 42.9781 44.3359 43.4233 43.743C43.8615 43.1244 44.2375 42.4815 44.5516 41.8141C44.8913 41.1397 45.2838 40.506 45.729 39.9131C45.9179 39.6952 46.1573 39.5601 46.4472 39.5079C46.737 39.4557 47.0003 39.5076 47.2369 39.6637C47.5507 39.7986 47.8249 40.0411 48.0597 40.3913C48.2945 40.7416 48.5199 41.1082 48.7361 41.4912C48.884 41.727 49.0856 41.9066 49.3409 42.0299C49.6148 42.1204 49.8896 42.1139 50.1653 42.0103L50.5509 41.9041C50.8266 41.8004 51.0792 41.8138 51.3088 41.9442C51.5383 42.0746 51.6792 42.2847 51.7314 42.5746ZM66.4889 36.6008C66.7874 37.1824 66.7385 37.7076 66.3421 38.1764C66.2675 38.3076 66.193 38.4387 66.1185 38.5699C66.0627 38.6683 66.0232 38.776 66.0001 38.893C65.9353 39.1598 65.8213 39.3986 65.6581 39.6095C65.5135 39.7876 65.3526 39.9564 65.1753 40.1159C64.3302 40.7636 63.4405 41.2991 62.5061 41.7225C61.6044 42.1645 60.6004 42.3857 59.4942 42.3862C59.2158 42.3799 58.8321 42.292 58.3428 42.1225C57.8536 41.9531 57.4379 41.7495 57.0958 41.5118C57.0161 41.4231 56.8907 41.3194 56.7196 41.2005C56.5672 41.0489 56.4148 40.8972 56.2624 40.7456C56.1543 40.5541 56.1398 40.3507 56.2188 40.1353C56.2977 39.9199 56.4728 39.8025 56.7441 39.7831C57.1253 39.7611 57.475 39.7754 57.7932 39.826C58.1114 39.8767 58.4167 39.9309 58.7092 39.9886C59.0602 40.0579 59.39 40.05 59.6985 39.965C60.4769 39.7783 61.1976 39.4829 61.8608 39.0789C62.5426 38.6422 62.9927 38.1171 63.211 37.5038C63.3086 37.2556 63.2741 37.03 63.1075 36.827C62.9409 36.6239 62.7477 36.525 62.5279 36.5302C61.8498 36.5788 61.1729 36.6822 60.4974 36.8406C59.8405 36.9663 59.0897 36.9518 58.245 36.7973C57.5616 36.6259 57.0977 36.2974 56.8532 35.8115C56.8134 35.7672 56.77 35.71 56.723 35.6399C56.669 35.5442 56.6056 35.4648 56.5329 35.4019C56.3735 35.2245 56.2454 35.0108 56.1489 34.7608C56.0524 34.5108 56.0073 34.2466 56.0136 33.9683C56.0217 33.4958 56.0919 33.0478 56.2241 32.6241C56.3821 32.1934 56.5365 31.7498 56.6873 31.2933C56.8639 30.8298 57.1366 30.4642 57.5055 30.1967C57.963 29.8493 58.4653 29.6142 59.0122 29.4912C59.5849 29.3611 60.0898 29.2358 60.5268 29.1154C60.8096 29.0375 61.1066 29.011 61.4177 29.036C61.8131 29.0654 62.2084 29.0948 62.6037 29.1242C62.9991 29.1536 63.3771 29.2707 63.7378 29.4756C63.9673 29.606 64.1609 29.8569 64.3186 30.2284C64.5019 30.5928 64.5647 30.9212 64.507 31.2137C64.475 31.4991 64.2321 31.6214 63.7782 31.5804C63.46 31.5298 63.1768 31.4557 62.9287 31.3581C62.6991 31.2277 62.4102 31.1828 62.0618 31.2235C61.7976 31.2686 61.4049 31.3491 60.8836 31.465C60.381 31.5482 60.0211 31.6473 59.8039 31.7625C59.3881 31.96 59.0626 32.2848 58.8276 32.7368C58.816 32.7953 58.8363 32.9694 58.8885 33.2593C58.9593 33.5164 59.043 33.77 59.1396 34.02C59.2361 34.27 59.3136 34.4008 59.3721 34.4123C59.6389 34.4771 60.0458 34.448 60.5927 34.325C61.1583 34.1692 61.6397 34.0089 62.0369 33.8442C62.1397 33.8159 62.2404 33.8296 62.3387 33.8855C62.3928 33.9813 62.4969 34.0079 62.6512 33.9654C63.2637 33.8796 63.7867 33.9707 64.22 34.2386C64.6463 34.4807 65.0633 34.7393 65.471 35.0142C65.8458 35.2705 66.1227 35.623 66.3016 36.0716C66.3299 36.1744 66.3547 36.2644 66.376 36.3415C66.4229 36.4116 66.4606 36.498 66.4889 36.6008ZM96.0684 21.6067C96.0282 22.3646 95.9424 23.1074 95.8109 23.8351C95.7052 24.5557 95.4638 25.2861 95.0868 26.0261C94.9635 26.2814 94.8242 26.6793 94.6689 27.22C94.5322 27.7279 94.3685 28.1879 94.1777 28.6C94.1289 28.7241 94.038 28.8459 93.905 28.9655C93.7906 29.0524 93.6962 29.1614 93.6217 29.2925C93.5125 29.5992 93.3391 29.9236 93.1014 30.2656C92.8895 30.6006 92.6682 30.952 92.4376 31.3198C92.3932 31.3597 92.3325 31.3902 92.2554 31.4115C92.1782 31.4327 92.1175 31.4633 92.0732 31.5032C91.7584 31.8665 91.4484 32.2976 91.1433 32.7966C90.8568 33.2627 90.6027 33.5955 90.381 33.7948C90.2551 33.9402 90.1022 34.0376 89.9222 34.0872C89.775 34.1554 89.6349 34.2493 89.5019 34.3689C88.9673 34.7375 88.4505 34.7692 87.9515 34.4641C87.722 34.3337 87.5545 34.2277 87.449 34.1461C87.2124 33.99 87.0716 33.7799 87.0264 33.5157C86.9743 33.2258 87.0005 32.9697 87.1052 32.7472C87.3172 32.4122 87.5455 32.0865 87.7903 31.7702C88.028 31.4281 88.2191 31.168 88.3637 30.9899C88.6013 30.6478 88.8182 30.3806 89.0141 30.1883C89.203 29.9704 89.4186 29.6482 89.6607 29.2219C90.0776 28.5262 90.4514 27.9254 90.7823 27.4193C91.1388 26.9062 91.4333 26.3687 91.6657 25.8068C91.9239 25.2378 92.1138 24.5216 92.2356 23.6583C92.3324 23.1061 92.3659 22.4745 92.336 21.7636C92.3248 21.0199 92.165 20.2894 91.8568 19.5722C91.5415 18.8292 90.9891 18.1793 90.1994 17.6223C89.4374 16.8641 88.6469 16.4042 87.8279 16.2426C87.0018 16.0553 86.2169 15.9672 85.4732 15.9785C84.7224 15.964 84.0859 15.8627 83.5639 15.6746C83.3157 15.577 83.1691 15.3961 83.124 15.132C83.1046 14.8607 83.2163 14.664 83.4593 14.5417C83.938 14.2715 84.673 14.0276 85.6641 13.8099C86.6552 13.5922 87.863 13.5084 89.2875 13.5586C89.8769 13.5898 90.2864 13.6706 90.516 13.801C90.7641 13.8986 91.1435 14.0707 91.654 14.3173C91.8436 14.4034 92.0111 14.5094 92.1564 14.6353C92.3018 14.7612 92.4693 14.8672 92.6589 14.9533C92.7316 15.0162 92.8605 15.1328 93.0457 15.3031C93.2496 15.4406 93.3971 15.5244 93.4884 15.5546C94.4491 16.2304 95.1308 17.149 95.5337 18.3103C95.9553 19.4389 96.1335 20.5377 96.0684 21.6067ZM82.9409 17.6303C83.1101 17.9433 83.1951 18.2518 83.1959 18.5558C83.3225 21.4252 83.5191 24.2477 83.7858 27.0232C84.0525 29.7987 84.2722 32.5042 84.445 35.1396C84.4644 35.4109 84.3761 35.6426 84.1802 35.8349C83.9842 36.0272 83.7435 36.1073 83.4581 36.0753C83.3809 36.0966 83.2839 36.0956 83.1669 36.0726C82.8815 36.0405 82.624 35.9593 82.3944 35.829C82.1578 35.6729 81.9434 35.4968 81.7511 35.3008C81.6829 35.1537 81.589 35.0136 81.4694 34.8806C81.3754 34.7405 81.3166 34.5769 81.2927 34.3899C81.1946 33.5318 81.1152 32.6409 81.0543 31.7172C80.9935 30.7935 80.9433 29.9084 80.9037 29.0618C80.8589 27.9955 80.7835 26.8683 80.6776 25.6805C80.5974 24.4855 80.5149 23.3327 80.4302 22.222C80.3384 21.0855 80.2657 20.0683 80.2119 19.1704C80.1784 18.8477 80.1248 18.5028 80.0514 18.1358C79.978 17.7688 79.928 17.4368 79.9015 17.1399C79.9007 16.8358 80.0019 16.6005 80.2049 16.4339C80.4337 16.2603 80.6943 16.2023 80.9868 16.2601C81.0383 16.2459 81.1131 16.2667 81.2115 16.3226C81.5998 16.3263 81.9392 16.4541 82.2299 16.7059C82.5392 16.925 82.7762 17.2331 82.9409 17.6303ZM117.41 24.4821C117.455 24.7463 117.412 24.9932 117.282 25.2227C117.152 25.4522 116.942 25.5931 116.652 25.6453C116.072 25.7497 115.473 25.7348 114.855 25.6008C114.263 25.4596 113.754 25.2679 113.328 25.0258C113.19 24.9256 113.047 24.9096 112.9 24.9778C112.778 25.0389 112.7 25.1572 112.665 25.3327C112.675 25.4683 112.582 25.6323 112.386 25.8246C112.304 25.93 112.226 26.0483 112.152 26.1795C112.096 26.2779 112.031 26.3926 111.956 26.5238C111.833 26.7791 111.677 27.0157 111.488 27.2337C111.325 27.4446 111.189 27.7034 111.08 28.01C110.873 28.5649 110.494 28.9459 109.942 29.1531C109.527 29.3506 109.084 29.5003 108.614 29.602C108.144 29.7038 107.689 29.7599 107.25 29.7704C106.868 29.7924 106.488 29.7174 106.109 29.5453C106.043 29.508 105.978 29.4708 105.912 29.4335C105.846 29.3963 105.772 29.3754 105.687 29.371C105.296 29.2573 104.952 29.0618 104.654 28.7842C104.157 28.285 103.688 27.7365 103.247 27.1389C102.799 26.5156 102.558 25.7935 102.526 24.9727C102.491 24.3459 102.536 23.6559 102.661 22.9025C102.804 22.1162 102.953 21.4528 103.108 20.9121C103.445 19.8237 104.03 18.8879 104.866 18.1046C105.694 17.2956 106.715 16.8345 107.928 16.7215C108.955 16.6324 109.895 16.7329 110.75 17.0231C111.63 17.3061 112.45 17.7718 113.209 18.4201C113.387 18.5646 113.463 18.7375 113.435 18.9387C113.433 19.1328 113.337 19.2839 113.145 19.392C112.755 19.5825 112.387 19.6009 112.04 19.4475C111.234 19.0332 110.382 18.95 109.482 19.1979C108.582 19.4458 107.816 19.8781 107.184 20.4948C107.095 20.5745 107.019 20.6507 106.956 20.7234C106.919 20.789 106.885 20.8674 106.855 20.9587C106.625 21.3265 106.399 21.7621 106.178 22.2655C105.983 22.7618 105.874 23.3725 105.853 24.0976C105.842 24.4602 105.816 24.8684 105.775 25.3222C105.76 25.769 105.815 26.1688 105.94 26.5216C106.011 26.7787 106.174 26.9689 106.429 27.0922C106.677 27.1898 106.926 27.1903 107.176 27.0938C108.015 26.7245 108.657 26.2434 109.102 25.6505C109.54 25.032 109.916 24.389 110.23 23.7216C110.57 23.0472 110.962 22.4135 111.408 21.8207C111.596 21.6027 111.836 21.4676 112.126 21.4154C112.416 21.3632 112.679 21.4151 112.916 21.5712C113.229 21.7061 113.504 21.9486 113.738 22.2988C113.973 22.6491 114.199 23.0157 114.415 23.3987C114.563 23.6346 114.764 23.8141 115.019 23.9374C115.293 24.0279 115.568 24.0214 115.844 23.9178L116.229 23.8116C116.505 23.7079 116.758 23.7213 116.987 23.8517C117.217 23.9821 117.358 24.1922 117.41 24.4821ZM135.553 13.6342C135.725 14.0571 135.844 14.5912 135.911 15.2365C136.004 15.8748 136.026 16.5051 135.976 17.1273C135.919 17.7239 135.753 18.226 135.478 18.6336C135.334 18.8117 135.163 18.9969 134.967 19.1892C134.834 19.3088 134.685 19.4191 134.519 19.5201C134.379 19.6141 134.252 19.7044 134.137 19.7912C133.939 19.8736 133.734 19.9852 133.524 20.1261C133.34 20.2599 133.201 20.4088 133.108 20.5727C133.033 20.7039 132.933 20.8421 132.807 20.9874C132.674 21.1071 132.551 21.2103 132.436 21.2971C131.78 21.7268 131.051 22.0935 130.25 22.3973C129.474 22.6939 128.706 22.7672 127.946 22.6171C127.51 22.5434 127.13 22.3164 126.804 21.936C126.745 21.9244 126.672 21.8614 126.586 21.7471C126.426 21.5697 126.36 21.3804 126.388 21.1792C126.408 20.9523 126.501 20.7884 126.667 20.6874C126.947 20.4995 127.235 20.3374 127.529 20.201C127.849 20.0575 128.162 19.8884 128.468 19.6935C128.902 19.4631 129.374 19.1672 129.883 18.8058C130.112 18.6321 130.322 18.4912 130.513 18.3832C130.705 18.2751 130.922 18.1599 131.165 18.0377C131.286 17.9766 131.404 17.9026 131.519 17.8158C131.652 17.6962 131.763 17.5965 131.851 17.5167C132.04 17.2987 132.222 17.055 132.397 16.7856C132.571 16.5162 132.713 16.2282 132.822 15.9215C132.894 15.6804 132.901 15.4021 132.841 15.0865C132.808 14.7638 132.743 14.4775 132.646 14.2275C132.585 14.106 132.518 14.0138 132.446 13.9508C132.366 13.8622 132.286 13.7735 132.206 13.6848C131.981 13.4702 131.687 13.3575 131.325 13.3468C130.981 13.3032 130.664 13.3075 130.374 13.3597C130.117 13.4305 129.845 13.547 129.558 13.7091C129.296 13.8641 129.033 13.9642 128.769 14.0093C128.549 14.0146 128.247 13.9732 127.864 13.8853C127.506 13.7904 127.163 13.6497 126.835 13.4635C126.532 13.2701 126.353 13.0706 126.296 12.8649C126.216 12.4722 126.324 12.1106 126.62 11.7801C126.942 11.4424 127.333 11.1549 127.793 10.9175C128.253 10.6802 128.637 10.519 128.946 10.434C129.409 10.3065 129.874 10.2889 130.342 10.3813C130.829 10.4409 131.247 10.5053 131.598 10.5746C131.748 10.6163 131.898 10.658 132.048 10.6997C132.198 10.7414 132.342 10.8124 132.48 10.9126C132.611 10.9871 132.739 11.0488 132.863 11.0976C132.98 11.1207 133.117 11.1659 133.274 11.2333C133.796 11.4215 134.165 11.707 134.381 12.09C134.587 12.3374 134.794 12.5848 135 12.8322C135.232 13.0725 135.417 13.3398 135.553 13.6342ZM125.406 15.8071C125.459 16.401 125.462 16.967 125.417 17.5051C125.397 18.036 125.421 18.6242 125.488 19.2695C125.517 19.3724 125.519 19.4823 125.496 19.5993C125.499 19.7092 125.488 19.8227 125.465 19.9397C125.386 20.155 125.382 20.3913 125.453 20.6484C125.463 20.784 125.473 20.9196 125.482 21.0552C125.492 21.1909 125.502 21.3265 125.511 21.4621C125.498 21.7148 125.475 21.9838 125.443 22.2692C125.437 22.5475 125.391 22.7815 125.305 22.9712C125.228 23.2965 125.194 23.624 125.202 23.9538C125.366 25.1532 125.445 26.2932 125.439 27.3737C125.458 28.4472 125.55 29.5836 125.714 30.783C125.724 30.9186 125.721 31.0578 125.705 31.2005C125.696 31.3689 125.657 31.5316 125.59 31.6885C125.597 31.7142 125.588 31.7306 125.562 31.7376C125.569 31.7634 125.58 31.8019 125.594 31.8533C125.529 32.1201 125.362 32.3182 125.094 32.4475C124.858 32.5955 124.603 32.6242 124.329 32.5337C124.03 32.4502 123.777 32.2848 123.57 32.0374C123.371 31.8157 123.135 31.5626 122.863 31.2779C122.769 31.1378 122.665 30.9592 122.55 30.742C122.441 30.5505 122.375 30.3612 122.352 30.1741C121.905 27.4482 121.691 24.7135 121.71 21.97C121.728 19.2265 121.74 16.6093 121.746 14.1185C121.726 13.8472 121.818 13.6283 122.021 13.4617C122.217 13.2694 122.454 13.1764 122.733 13.1827C123.018 13.2148 123.263 13.2995 123.467 13.437C123.689 13.5417 123.919 13.672 124.155 13.8281C124.483 14.0144 124.725 14.2383 124.88 14.4999C124.894 14.5513 124.934 14.5956 124.999 14.6329C125.1 14.7987 125.192 14.9809 125.274 15.1795C125.357 15.3781 125.4 15.5873 125.406 15.8071Z" fill="white"/>
</svg>
